<svg xmlns="http://www.w3.org/2000/svg" xmlns:xlink="http://www.w3.org/1999/xlink" width="700" zoomAndPan="magnify" viewBox="0 0 525 183.750001" height="245" preserveAspectRatio="xMidYMid meet" version="1.0"><defs><g/></defs><path fill="#3c4851" d="M 9.339844 80.320312 C 9.089844 80.320312 8.847656 80.273438 8.617188 80.175781 C 8.386719 80.082031 8.183594 79.945312 8.007812 79.769531 C 7.832031 79.589844 7.695312 79.386719 7.601562 79.15625 C 7.503906 78.925781 7.457031 78.683594 7.457031 78.433594 C 7.457031 78.183594 7.507812 77.945312 7.601562 77.714844 C 7.699219 77.484375 7.835938 77.28125 8.011719 77.105469 C 8.191406 76.929688 8.394531 76.792969 8.625 76.699219 C 8.855469 76.601562 9.097656 76.554688 9.347656 76.558594 C 9.597656 76.558594 9.835938 76.605469 10.066406 76.703125 C 10.296875 76.800781 10.5 76.9375 10.675781 77.113281 C 10.851562 77.292969 10.988281 77.496094 11.082031 77.726562 C 11.175781 77.957031 11.222656 78.199219 11.222656 78.449219 C 11.21875 78.699219 11.171875 78.9375 11.074219 79.164062 C 10.980469 79.394531 10.84375 79.597656 10.667969 79.773438 C 10.488281 79.949219 10.285156 80.082031 10.058594 80.179688 C 9.828125 80.273438 9.589844 80.320312 9.339844 80.320312 Z M 9.339844 77.472656 C 9.070312 77.472656 8.839844 77.566406 8.648438 77.757812 C 8.457031 77.949219 8.363281 78.179688 8.363281 78.449219 C 8.363281 78.71875 8.457031 78.949219 8.648438 79.140625 C 8.839844 79.332031 9.070312 79.425781 9.339844 79.425781 C 9.609375 79.425781 9.839844 79.332031 10.03125 79.140625 C 10.222656 78.949219 10.316406 78.71875 10.316406 78.449219 C 10.316406 78.179688 10.222656 77.949219 10.03125 77.757812 C 9.839844 77.566406 9.609375 77.472656 9.339844 77.472656 Z M 9.339844 77.472656 " fill-opacity="1" fill-rule="nonzero"/><path fill="#dc9a9a" d="M 492.46875 87.785156 L 517.71875 91.101562 C 521.785156 91.640625 523.738281 96.910156 521.191406 100.457031 L 499.296875 130.863281 L 513.582031 173.347656 C 514.972656 177.507812 511.8125 181.78125 507.863281 181.082031 L 455.242188 171.800781 L 446.75 150.488281 L 484.609375 115.207031 Z M 492.46875 87.785156 " fill-opacity="1" fill-rule="nonzero"/><path fill="#f9c5c5" d="M 448.171875 149.148438 L 482.894531 151.226562 L 455.410156 171.832031 L 455.242188 171.800781 L 446.75 150.488281 Z M 448.171875 149.148438 " fill-opacity="1" fill-rule="nonzero"/><path fill="#3c4851" d="M 488.652344 98.867188 C 488.582031 98.839844 488.527344 98.792969 488.488281 98.730469 C 488.425781 98.640625 488.402344 98.542969 488.425781 98.433594 C 488.445312 98.324219 488.5 98.242188 488.589844 98.179688 C 488.683594 98.117188 497.726562 91.828125 505.429688 77.179688 C 505.476562 77.070312 505.550781 76.996094 505.660156 76.957031 C 505.769531 76.914062 505.878906 76.921875 505.980469 76.976562 C 506.085938 77.03125 506.152344 77.113281 506.179688 77.226562 C 506.210938 77.339844 506.191406 77.445312 506.128906 77.542969 C 503.050781 83.496094 499.222656 88.914062 494.640625 93.804688 C 492.941406 95.652344 491.082031 97.332031 489.070312 98.835938 C 488.9375 98.921875 488.796875 98.933594 488.652344 98.867188 Z M 488.652344 98.867188 " fill-opacity="1" fill-rule="nonzero"/><path fill="#3c4851" d="M 504.109375 80.382812 C 504.109375 80.382812 500.097656 72.742188 510.277344 64.238281 C 510.277344 64.238281 515.058594 73.875 504.109375 80.382812 Z M 504.109375 80.382812 " fill-opacity="1" fill-rule="nonzero"/><path fill="#3c4851" d="M 501.730469 88.957031 C 501.730469 88.957031 503.988281 82.910156 513.808594 84.332031 C 513.808594 84.332031 510.835938 91.828125 501.730469 88.957031 Z M 501.730469 88.957031 " fill-opacity="1" fill-rule="nonzero"/><path fill="#3c4851" d="M 496.347656 87.140625 C 496.347656 87.140625 500.214844 83.925781 496.648438 77.078125 C 496.648438 77.078125 491.90625 81.195312 496.347656 87.140625 Z M 496.347656 87.140625 " fill-opacity="1" fill-rule="nonzero"/><path fill="#3c4851" d="M 495.160156 92.847656 L 495.078125 92.847656 C 494.992188 92.777344 494.945312 92.6875 494.933594 92.578125 C 494.921875 92.46875 494.949219 92.371094 495.015625 92.285156 C 495.128906 92.148438 497.84375 88.9375 505.015625 87.878906 C 505.117188 87.871094 505.210938 87.898438 505.292969 87.964844 C 505.371094 88.027344 505.421875 88.113281 505.4375 88.214844 C 505.449219 88.316406 505.429688 88.410156 505.371094 88.496094 C 505.3125 88.582031 505.230469 88.636719 505.128906 88.65625 C 498.289062 89.695312 495.648438 92.816406 495.628906 92.816406 C 495.480469 92.9375 495.324219 92.945312 495.160156 92.847656 Z M 495.160156 92.847656 " fill-opacity="1" fill-rule="nonzero"/><path fill="#3c4851" d="M 493.488281 94.605469 C 493.441406 94.578125 493.398438 94.546875 493.363281 94.511719 C 493.285156 94.433594 493.246094 94.34375 493.246094 94.234375 C 493.246094 94.125 493.285156 94.035156 493.363281 93.960938 C 496.378906 91.203125 496.105469 84 496.105469 83.925781 C 496.101562 83.820312 496.132812 83.726562 496.207031 83.644531 C 496.28125 83.566406 496.371094 83.523438 496.480469 83.523438 C 496.589844 83.515625 496.683594 83.550781 496.765625 83.621094 C 496.847656 83.695312 496.890625 83.789062 496.898438 83.894531 C 496.925781 85.289062 496.84375 86.675781 496.648438 88.054688 C 496.210938 91.089844 495.285156 93.253906 493.890625 94.550781 C 493.765625 94.644531 493.632812 94.664062 493.488281 94.605469 Z M 493.488281 94.605469 " fill-opacity="1" fill-rule="nonzero"/><path fill="#dc9a9a" d="M 32.425781 87.785156 L 7.175781 91.101562 C 3.113281 91.640625 1.15625 96.910156 3.703125 100.457031 L 25.597656 130.863281 L 11.316406 173.347656 C 9.921875 177.507812 13.082031 181.78125 17.03125 181.082031 L 69.652344 171.800781 L 78.148438 150.488281 L 40.285156 115.207031 Z M 32.425781 87.785156 " fill-opacity="1" fill-rule="nonzero"/><path fill="#f9c5c5" d="M 76.722656 149.148438 L 42 151.226562 L 69.488281 171.832031 L 69.652344 171.800781 L 78.148438 150.488281 Z M 76.722656 149.148438 " fill-opacity="1" fill-rule="nonzero"/><path fill="#3c4851" d="M 36.160156 98.867188 C 36.226562 98.835938 36.28125 98.789062 36.324219 98.730469 C 36.386719 98.640625 36.410156 98.542969 36.390625 98.433594 C 36.367188 98.324219 36.3125 98.242188 36.222656 98.179688 C 36.128906 98.117188 27.085938 91.828125 19.382812 77.179688 C 19.339844 77.070312 19.261719 76.996094 19.152344 76.957031 C 19.042969 76.914062 18.933594 76.921875 18.832031 76.976562 C 18.726562 77.03125 18.660156 77.113281 18.632812 77.226562 C 18.601562 77.339844 18.621094 77.445312 18.683594 77.542969 C 21.746094 83.492188 25.558594 88.910156 30.121094 93.804688 C 31.863281 95.660156 33.765625 97.335938 35.828125 98.835938 C 35.933594 98.890625 36.042969 98.902344 36.160156 98.867188 Z M 36.160156 98.867188 " fill-opacity="1" fill-rule="nonzero"/><path fill="#3c4851" d="M 20.703125 80.382812 C 20.703125 80.382812 24.703125 72.742188 14.535156 64.238281 C 14.535156 64.238281 9.734375 73.875 20.703125 80.382812 Z M 20.703125 80.382812 " fill-opacity="1" fill-rule="nonzero"/><path fill="#3c4851" d="M 23.082031 88.957031 C 23.082031 88.957031 20.828125 82.910156 11.003906 84.332031 C 11.003906 84.332031 13.996094 91.828125 23.082031 88.957031 Z M 23.082031 88.957031 " fill-opacity="1" fill-rule="nonzero"/><path fill="#3c4851" d="M 28.46875 87.140625 C 28.46875 87.140625 24.601562 83.894531 28.164062 77.078125 C 28.164062 77.078125 32.90625 81.195312 28.46875 87.140625 Z M 28.46875 87.140625 " fill-opacity="1" fill-rule="nonzero"/><path fill="#3c4851" d="M 29.652344 92.847656 L 29.734375 92.847656 C 29.847656 92.777344 29.90625 92.675781 29.921875 92.542969 C 29.933594 92.414062 29.890625 92.304688 29.796875 92.210938 C 29.683594 92.078125 26.96875 88.867188 19.796875 87.804688 C 19.691406 87.789062 19.59375 87.8125 19.503906 87.878906 C 19.417969 87.945312 19.367188 88.03125 19.351562 88.136719 C 19.332031 88.246094 19.355469 88.339844 19.417969 88.429688 C 19.480469 88.515625 19.566406 88.570312 19.671875 88.585938 C 26.523438 89.625 29.152344 92.742188 29.183594 92.742188 C 29.316406 92.890625 29.472656 92.925781 29.652344 92.847656 Z M 29.652344 92.847656 " fill-opacity="1" fill-rule="nonzero"/><path fill="#3c4851" d="M 31.324219 94.605469 C 31.371094 94.578125 31.414062 94.546875 31.449219 94.511719 C 31.527344 94.433594 31.566406 94.34375 31.566406 94.234375 C 31.566406 94.125 31.527344 94.035156 31.449219 93.960938 C 28.40625 91.171875 28.675781 84 28.675781 83.894531 C 28.679688 83.789062 28.648438 83.695312 28.574219 83.613281 C 28.5 83.535156 28.410156 83.492188 28.300781 83.492188 C 28.191406 83.484375 28.097656 83.519531 28.015625 83.589844 C 27.933594 83.664062 27.890625 83.757812 27.886719 83.863281 C 27.855469 85.257812 27.9375 86.644531 28.132812 88.023438 C 28.570312 91.058594 29.496094 93.222656 30.890625 94.519531 C 31.015625 94.640625 31.164062 94.667969 31.324219 94.605469 Z M 31.324219 94.605469 " fill-opacity="1" fill-rule="nonzero"/><path fill="#dc9a9a" d="M 63.667969 65.839844 L 41.078125 69.996094 C 35.421875 71.035156 31.472656 76.753906 32.023438 83.066406 L 37.34375 143.816406 C 37.769531 148.691406 41.585938 152.351562 46.003906 152.132812 L 86.546875 150.054688 C 92.667969 149.742188 97.917969 145.09375 99.539062 138.546875 L 104.425781 118.792969 Z M 63.667969 65.839844 " fill-opacity="1" fill-rule="nonzero"/><path fill="#f9c5c5" d="M 103.242188 123.753906 L 82.160156 124.242188 L 64.757812 132.164062 L 91.546875 148.796875 C 92.550781 148.289062 93.488281 147.683594 94.355469 146.972656 C 95.226562 146.261719 96.007812 145.464844 96.699219 144.582031 C 97.394531 143.699219 97.984375 142.75 98.46875 141.738281 C 98.953125 140.722656 99.320312 139.671875 99.570312 138.578125 Z M 103.242188 123.753906 " fill-opacity="1" fill-rule="nonzero"/><path fill="#dc9a9a" d="M 461.230469 65.839844 L 483.820312 69.996094 C 489.472656 71.035156 493.425781 76.753906 492.875 83.066406 L 487.550781 143.816406 C 487.125 148.691406 483.308594 152.351562 478.890625 152.132812 L 438.351562 150.054688 C 432.226562 149.742188 426.976562 145.09375 425.355469 138.546875 L 420.46875 118.792969 Z M 461.230469 65.839844 " fill-opacity="1" fill-rule="nonzero"/><path fill="#f9c5c5" d="M 421.65625 123.753906 L 442.738281 124.242188 L 460.199219 130.570312 L 433.347656 148.765625 C 432.347656 148.261719 431.410156 147.652344 430.539062 146.941406 C 429.671875 146.230469 428.890625 145.433594 428.195312 144.550781 C 427.503906 143.667969 426.914062 142.71875 426.429688 141.707031 C 425.945312 140.691406 425.574219 139.640625 425.324219 138.546875 Z M 421.65625 123.753906 " fill-opacity="1" fill-rule="nonzero"/><path fill="#3c4851" d="M 49.746094 71.140625 C 49.746094 71.140625 44.320312 74.15625 40.296875 70.578125 C 36.273438 67.003906 33.832031 66.359375 33.832031 66.359375 C 33.832031 66.359375 47.261719 60.828125 49.746094 71.140625 Z M 49.746094 71.140625 " fill-opacity="1" fill-rule="nonzero"/><path fill="#3c4851" d="M 42.800781 60.121094 C 42.800781 60.121094 37.375 63.136719 33.351562 59.558594 C 29.328125 55.984375 26.898438 55.339844 26.898438 55.339844 C 26.898438 55.339844 40.347656 49.808594 42.800781 60.121094 Z M 42.800781 60.121094 " fill-opacity="1" fill-rule="nonzero"/><path fill="#3c4851" d="M 38.257812 48.175781 C 38.257812 48.175781 32.324219 49.964844 29.152344 45.621094 C 25.984375 41.273438 23.738281 40.121094 23.738281 40.121094 C 23.738281 40.121094 38.0625 37.574219 38.257812 48.175781 Z M 38.257812 48.175781 " fill-opacity="1" fill-rule="nonzero"/><path fill="#3c4851" d="M 51.835938 72.296875 C 51.835938 72.296875 57.554688 69.882812 57.210938 64.507812 C 56.867188 59.132812 57.875 56.816406 57.875 56.816406 C 57.875 56.816406 45.183594 64 51.835938 72.296875 Z M 51.835938 72.296875 " fill-opacity="1" fill-rule="nonzero"/><path fill="#3c4851" d="M 45.089844 61.753906 C 45.089844 61.753906 50.808594 59.34375 50.464844 53.957031 C 50.121094 48.574219 51.128906 46.273438 51.128906 46.273438 C 51.128906 46.273438 38.476562 53.457031 45.089844 61.753906 Z M 45.089844 61.753906 " fill-opacity="1" fill-rule="nonzero"/><path fill="#3c4851" d="M 39.214844 48.09375 C 39.214844 48.09375 45.222656 46.535156 45.660156 41.171875 C 46.097656 35.808594 47.429688 33.65625 47.429688 33.65625 C 47.429688 33.65625 33.871094 38.9375 39.214844 48.09375 Z M 39.214844 48.09375 " fill-opacity="1" fill-rule="nonzero"/><path fill="#3c4851" d="M 36.378906 38.582031 C 36.378906 38.582031 30.503906 36.605469 30.433594 31.222656 C 30.359375 25.835938 29.195312 23.601562 29.195312 23.601562 C 29.195312 23.601562 42.355469 29.839844 36.378906 38.582031 Z M 36.378906 38.582031 " fill-opacity="1" fill-rule="nonzero"/><path fill="#3c4851" d="M 61.878906 81.941406 C 61.914062 82.023438 61.933594 82.113281 61.941406 82.203125 C 61.945312 82.378906 61.890625 82.53125 61.769531 82.664062 C 61.652344 82.796875 61.503906 82.867188 61.328125 82.878906 C 61.046875 82.886719 60.839844 82.765625 60.714844 82.515625 C 60.597656 82.390625 60.246094 82.117188 59.902344 81.847656 C 55.375 78.347656 51.507812 74.230469 48.300781 69.488281 C 42.167969 60.601562 37.707031 49.433594 35.058594 36.304688 C 35.023438 36.132812 35.054688 35.972656 35.15625 35.824219 C 35.253906 35.679688 35.390625 35.589844 35.566406 35.558594 C 35.738281 35.523438 35.898438 35.554688 36.046875 35.652344 C 36.191406 35.75 36.28125 35.882812 36.316406 36.054688 C 40.402344 56.285156 48.601562 71.402344 60.691406 80.839844 C 61.441406 81.421875 61.816406 81.671875 61.878906 81.941406 Z M 61.878906 81.941406 " fill-opacity="1" fill-rule="nonzero"/><path fill="#f9c5c5" d="M 64.664062 34.671875 C 64.71875 35.046875 64.695312 35.414062 64.601562 35.777344 C 64.511719 36.140625 64.351562 36.472656 64.125 36.769531 C 63.898438 37.070312 63.625 37.316406 63.304688 37.507812 C 62.980469 37.699219 62.632812 37.820312 62.261719 37.871094 C 61.890625 37.925781 61.523438 37.90625 61.160156 37.8125 C 60.796875 37.71875 60.464844 37.558594 60.164062 37.332031 C 59.863281 37.105469 59.621094 36.832031 59.429688 36.507812 C 59.238281 36.1875 59.117188 35.839844 59.066406 35.46875 C 59.011719 35.09375 59.035156 34.726562 59.128906 34.363281 C 59.222656 34 59.382812 33.671875 59.605469 33.371094 C 59.832031 33.070312 60.105469 32.828125 60.429688 32.636719 C 60.753906 32.445312 61.101562 32.324219 61.472656 32.273438 C 61.84375 32.21875 62.210938 32.238281 62.574219 32.332031 C 62.9375 32.425781 63.269531 32.585938 63.566406 32.808594 C 63.867188 33.035156 64.113281 33.308594 64.300781 33.632812 C 64.492188 33.957031 64.613281 34.300781 64.664062 34.671875 Z M 64.664062 34.671875 " fill-opacity="1" fill-rule="nonzero"/><path fill="#3c4851" d="M 67.792969 71.160156 C 67.640625 71.183594 67.5 71.15625 67.371094 71.078125 C 67.242188 71 67.148438 70.890625 67.097656 70.746094 C 63.253906 59.566406 61.148438 48.070312 60.777344 36.253906 C 60.769531 36.074219 60.828125 35.917969 60.953125 35.789062 C 61.078125 35.65625 61.230469 35.589844 61.410156 35.589844 C 61.589844 35.582031 61.746094 35.640625 61.878906 35.765625 C 62.011719 35.890625 62.082031 36.042969 62.085938 36.222656 C 62.449219 47.886719 64.53125 59.242188 68.324219 70.277344 C 68.386719 70.449219 68.378906 70.613281 68.304688 70.777344 C 68.230469 70.941406 68.109375 71.058594 67.9375 71.121094 Z M 67.792969 71.160156 " fill-opacity="1" fill-rule="nonzero"/><path fill="#f9c5c5" d="M 69.644531 41.867188 C 69.695312 42.238281 69.675781 42.605469 69.582031 42.96875 C 69.488281 43.332031 69.328125 43.664062 69.105469 43.960938 C 68.878906 44.261719 68.605469 44.507812 68.285156 44.699219 C 67.960938 44.890625 67.613281 45.011719 67.242188 45.0625 C 66.871094 45.117188 66.503906 45.097656 66.140625 45.003906 C 65.777344 44.910156 65.445312 44.75 65.148438 44.527344 C 64.847656 44.300781 64.601562 44.027344 64.410156 43.707031 C 64.21875 43.382812 64.097656 43.035156 64.042969 42.664062 C 63.992188 42.292969 64.011719 41.925781 64.105469 41.5625 C 64.199219 41.203125 64.355469 40.871094 64.582031 40.570312 C 64.804688 40.269531 65.078125 40.023438 65.402344 39.832031 C 65.722656 39.640625 66.070312 39.519531 66.441406 39.464844 C 66.8125 39.414062 67.179688 39.433594 67.542969 39.527344 C 67.90625 39.621094 68.238281 39.78125 68.539062 40.007812 C 68.835938 40.230469 69.082031 40.503906 69.273438 40.828125 C 69.464844 41.148438 69.589844 41.496094 69.644531 41.867188 Z M 69.644531 41.867188 " fill-opacity="1" fill-rule="nonzero"/><path fill="#f9c5c5" d="M 58.570312 44.320312 C 58.625 44.691406 58.605469 45.058594 58.511719 45.421875 C 58.417969 45.785156 58.257812 46.117188 58.035156 46.417969 C 57.808594 46.714844 57.535156 46.960938 57.210938 47.152344 C 56.890625 47.34375 56.542969 47.464844 56.171875 47.515625 C 55.800781 47.570312 55.433594 47.550781 55.070312 47.457031 C 54.707031 47.363281 54.375 47.207031 54.078125 46.980469 C 53.777344 46.753906 53.53125 46.480469 53.339844 46.160156 C 53.148438 45.835938 53.027344 45.488281 52.972656 45.117188 C 52.921875 44.746094 52.941406 44.378906 53.035156 44.019531 C 53.125 43.65625 53.285156 43.324219 53.507812 43.023438 C 53.734375 42.722656 54.007812 42.476562 54.332031 42.285156 C 54.652344 42.09375 55 41.972656 55.371094 41.917969 C 55.742188 41.867188 56.109375 41.886719 56.472656 41.980469 C 56.835938 42.070312 57.167969 42.230469 57.46875 42.457031 C 57.769531 42.679688 58.015625 42.957031 58.207031 43.277344 C 58.398438 43.601562 58.519531 43.949219 58.570312 44.320312 Z M 58.570312 44.320312 " fill-opacity="1" fill-rule="nonzero"/><path fill="#3c4851" d="M 62.605469 49.820312 L 62.417969 49.820312 C 62.238281 49.792969 62.09375 49.707031 61.988281 49.558594 C 61.878906 49.414062 61.839844 49.25 61.867188 49.070312 C 61.867188 48.90625 62.5 44.863281 64.984375 42.636719 C 65.121094 42.539062 65.273438 42.496094 65.441406 42.515625 C 65.609375 42.535156 65.75 42.609375 65.859375 42.734375 C 65.972656 42.859375 66.027344 43.007812 66.023438 43.175781 C 66.023438 43.34375 65.964844 43.492188 65.847656 43.613281 C 63.769531 45.515625 63.144531 49.226562 63.144531 49.269531 C 63.097656 49.582031 62.917969 49.765625 62.605469 49.820312 Z M 62.605469 49.820312 " fill-opacity="1" fill-rule="nonzero"/><path fill="#3c4851" d="M 63.96875 57.605469 C 63.796875 57.632812 63.640625 57.59375 63.5 57.496094 C 63.359375 57.398438 63.273438 57.265625 63.238281 57.097656 C 62.347656 52.9375 57.5625 46.886719 55.765625 45.902344 C 55.609375 45.8125 55.503906 45.683594 55.453125 45.511719 C 55.402344 45.339844 55.421875 45.175781 55.503906 45.015625 C 55.59375 44.863281 55.722656 44.761719 55.894531 44.710938 C 56.066406 44.660156 56.230469 44.675781 56.390625 44.757812 C 58.46875 45.890625 63.519531 52.199219 64.507812 56.828125 C 64.550781 57.003906 64.519531 57.167969 64.421875 57.316406 C 64.324219 57.46875 64.1875 57.5625 64.007812 57.597656 Z M 63.96875 57.605469 " fill-opacity="1" fill-rule="nonzero"/><path fill="#3c4851" d="M 473.476562 71.140625 C 473.476562 71.140625 478.902344 74.15625 482.925781 70.578125 C 486.949219 67.003906 489.390625 66.359375 489.390625 66.359375 C 489.390625 66.359375 475.878906 60.828125 473.476562 71.140625 Z M 473.476562 71.140625 " fill-opacity="1" fill-rule="nonzero"/><path fill="#3c4851" d="M 480.367188 60.121094 C 480.367188 60.121094 485.792969 63.136719 489.816406 59.558594 C 493.839844 55.984375 496.273438 55.339844 496.273438 55.339844 C 496.273438 55.339844 482.832031 49.808594 480.367188 60.121094 Z M 480.367188 60.121094 " fill-opacity="1" fill-rule="nonzero"/><path fill="#3c4851" d="M 484.910156 48.175781 C 484.910156 48.175781 490.847656 49.964844 494.015625 45.621094 C 497.1875 41.273438 499.464844 40.121094 499.464844 40.121094 C 499.464844 40.121094 485.109375 37.574219 484.910156 48.175781 Z M 484.910156 48.175781 " fill-opacity="1" fill-rule="nonzero"/><path fill="#3c4851" d="M 471.335938 72.296875 C 471.335938 72.296875 465.628906 69.882812 465.960938 64.507812 C 466.292969 59.132812 465.292969 56.816406 465.292969 56.816406 C 465.292969 56.816406 477.957031 64 471.335938 72.296875 Z M 471.335938 72.296875 " fill-opacity="1" fill-rule="nonzero"/><path fill="#3c4851" d="M 478.082031 61.753906 C 478.082031 61.753906 472.363281 59.34375 472.707031 53.957031 C 473.050781 48.574219 472.042969 46.273438 472.042969 46.273438 C 472.042969 46.273438 484.691406 53.457031 478.082031 61.753906 Z M 478.082031 61.753906 " fill-opacity="1" fill-rule="nonzero"/><path fill="#3c4851" d="M 483.953125 48.09375 C 483.953125 48.09375 477.945312 46.535156 477.507812 41.171875 C 477.074219 35.808594 475.742188 33.65625 475.742188 33.65625 C 475.742188 33.65625 489.296875 38.9375 483.953125 48.09375 Z M 483.953125 48.09375 " fill-opacity="1" fill-rule="nonzero"/><path fill="#3c4851" d="M 486.792969 38.582031 C 486.792969 38.582031 492.664062 36.605469 492.738281 31.222656 C 492.8125 25.835938 493.976562 23.601562 493.976562 23.601562 C 493.976562 23.601562 480.816406 29.839844 486.792969 38.582031 Z M 486.792969 38.582031 " fill-opacity="1" fill-rule="nonzero"/><path fill="#3c4851" d="M 462.476562 80.839844 C 474.566406 71.347656 482.769531 56.285156 486.855469 36.054688 C 486.902344 35.898438 487 35.777344 487.140625 35.691406 C 487.28125 35.605469 487.433594 35.582031 487.597656 35.613281 C 487.757812 35.644531 487.890625 35.726562 487.988281 35.859375 C 488.085938 35.992188 488.128906 36.140625 488.113281 36.304688 C 485.460938 49.433594 481.003906 60.601562 474.847656 69.488281 C 471.644531 74.214844 467.785156 78.324219 463.265625 81.816406 C 462.925781 82.085938 462.582031 82.359375 462.457031 82.484375 C 462.328125 82.734375 462.125 82.855469 461.84375 82.847656 C 461.667969 82.835938 461.519531 82.765625 461.398438 82.632812 C 461.28125 82.5 461.222656 82.347656 461.230469 82.171875 C 461.234375 82.082031 461.253906 81.992188 461.292969 81.910156 C 461.40625 81.671875 461.730469 81.421875 462.476562 80.839844 Z M 462.476562 80.839844 " fill-opacity="1" fill-rule="nonzero"/><path fill="#f9c5c5" d="M 458.507812 34.671875 C 458.453125 35.046875 458.472656 35.414062 458.566406 35.777344 C 458.660156 36.140625 458.820312 36.472656 459.046875 36.769531 C 459.269531 37.070312 459.542969 37.316406 459.867188 37.507812 C 460.191406 37.699219 460.539062 37.820312 460.910156 37.871094 C 461.28125 37.925781 461.648438 37.90625 462.011719 37.8125 C 462.375 37.71875 462.707031 37.558594 463.003906 37.332031 C 463.304688 37.105469 463.550781 36.832031 463.742188 36.507812 C 463.933594 36.1875 464.054688 35.839844 464.105469 35.46875 C 464.15625 35.09375 464.136719 34.726562 464.042969 34.363281 C 463.949219 34 463.789062 33.671875 463.5625 33.371094 C 463.339844 33.070312 463.0625 32.828125 462.738281 32.636719 C 462.417969 32.445312 462.070312 32.324219 461.699219 32.273438 C 461.328125 32.21875 460.960938 32.242188 460.597656 32.335938 C 460.234375 32.429688 459.90625 32.589844 459.605469 32.8125 C 459.304688 33.039062 459.0625 33.3125 458.871094 33.632812 C 458.679688 33.957031 458.558594 34.304688 458.507812 34.671875 Z M 458.507812 34.671875 " fill-opacity="1" fill-rule="nonzero"/><path fill="#3c4851" d="M 455.378906 71.160156 C 455.53125 71.183594 455.671875 71.15625 455.804688 71.078125 C 455.9375 71 456.03125 70.890625 456.085938 70.746094 C 459.929688 59.566406 462.050781 48.070312 462.445312 36.253906 C 462.425781 36.089844 462.351562 35.953125 462.230469 35.84375 C 462.105469 35.734375 461.960938 35.679688 461.796875 35.679688 C 461.632812 35.679688 461.488281 35.734375 461.363281 35.84375 C 461.238281 35.953125 461.167969 36.089844 461.148438 36.253906 C 460.761719 47.921875 458.664062 59.273438 454.859375 70.308594 C 454.792969 70.480469 454.800781 70.644531 454.875 70.808594 C 454.949219 70.972656 455.074219 71.089844 455.242188 71.152344 Z M 455.378906 71.160156 " fill-opacity="1" fill-rule="nonzero"/><path fill="#f9c5c5" d="M 453.527344 41.867188 C 453.472656 42.238281 453.496094 42.605469 453.585938 42.96875 C 453.679688 43.332031 453.839844 43.664062 454.066406 43.960938 C 454.289062 44.261719 454.5625 44.507812 454.886719 44.699219 C 455.210938 44.890625 455.554688 45.011719 455.925781 45.0625 C 456.296875 45.117188 456.664062 45.097656 457.027344 45.003906 C 457.390625 44.910156 457.722656 44.75 458.023438 44.527344 C 458.324219 44.300781 458.566406 44.027344 458.757812 43.707031 C 458.949219 43.382812 459.074219 43.035156 459.125 42.664062 C 459.179688 42.292969 459.160156 41.925781 459.066406 41.5625 C 458.972656 41.199219 458.8125 40.871094 458.589844 40.570312 C 458.363281 40.269531 458.089844 40.023438 457.769531 39.832031 C 457.445312 39.640625 457.101562 39.519531 456.730469 39.464844 C 456.355469 39.414062 455.988281 39.433594 455.628906 39.527344 C 455.265625 39.621094 454.933594 39.78125 454.632812 40.007812 C 454.332031 40.230469 454.085938 40.503906 453.894531 40.828125 C 453.703125 41.148438 453.582031 41.496094 453.527344 41.867188 Z M 453.527344 41.867188 " fill-opacity="1" fill-rule="nonzero"/><path fill="#f9c5c5" d="M 464.597656 44.320312 C 464.546875 44.691406 464.566406 45.058594 464.660156 45.421875 C 464.753906 45.785156 464.910156 46.117188 465.136719 46.417969 C 465.363281 46.714844 465.636719 46.960938 465.957031 47.152344 C 466.28125 47.34375 466.628906 47.464844 467 47.515625 C 467.371094 47.570312 467.738281 47.550781 468.101562 47.457031 C 468.460938 47.363281 468.792969 47.207031 469.09375 46.980469 C 469.394531 46.753906 469.640625 46.480469 469.832031 46.160156 C 470.019531 45.835938 470.144531 45.488281 470.195312 45.117188 C 470.25 44.746094 470.230469 44.378906 470.136719 44.019531 C 470.042969 43.65625 469.886719 43.324219 469.660156 43.023438 C 469.4375 42.722656 469.164062 42.476562 468.839844 42.285156 C 468.519531 42.09375 468.171875 41.972656 467.800781 41.917969 C 467.429688 41.867188 467.0625 41.886719 466.695312 41.980469 C 466.332031 42.070312 466 42.230469 465.699219 42.457031 C 465.402344 42.679688 465.15625 42.957031 464.964844 43.277344 C 464.773438 43.601562 464.652344 43.949219 464.597656 44.320312 Z M 464.597656 44.320312 " fill-opacity="1" fill-rule="nonzero"/><path fill="#3c4851" d="M 460.574219 49.820312 L 460.761719 49.820312 C 460.941406 49.789062 461.082031 49.703125 461.191406 49.558594 C 461.296875 49.414062 461.339844 49.25 461.3125 49.070312 C 461.3125 48.90625 460.667969 44.863281 458.195312 42.636719 C 458.058594 42.539062 457.90625 42.496094 457.738281 42.515625 C 457.570312 42.535156 457.429688 42.609375 457.320312 42.734375 C 457.207031 42.859375 457.152344 43.007812 457.15625 43.175781 C 457.160156 43.34375 457.21875 43.492188 457.332031 43.613281 C 459.460938 45.515625 460.035156 49.226562 460.035156 49.269531 C 460.085938 49.578125 460.265625 49.761719 460.574219 49.820312 Z M 460.574219 49.820312 " fill-opacity="1" fill-rule="nonzero"/><path fill="#3c4851" d="M 459.203125 57.605469 C 459.375 57.632812 459.527344 57.597656 459.671875 57.5 C 459.8125 57.402344 459.898438 57.265625 459.929688 57.097656 C 460.824219 52.9375 465.605469 46.886719 467.40625 45.902344 C 467.5625 45.816406 467.667969 45.6875 467.71875 45.515625 C 467.773438 45.339844 467.753906 45.175781 467.664062 45.015625 C 467.574219 44.863281 467.445312 44.761719 467.273438 44.710938 C 467.105469 44.660156 466.941406 44.675781 466.78125 44.757812 C 464.703125 45.890625 459.648438 52.199219 458.664062 56.828125 C 458.621094 57.003906 458.648438 57.167969 458.746094 57.316406 C 458.847656 57.46875 458.984375 57.5625 459.160156 57.597656 Z M 459.203125 57.605469 " fill-opacity="1" fill-rule="nonzero"/><path fill="#e2a1a1" d="M 59.050781 58.613281 L 59.050781 122.359375 C 59.050781 129.273438 64.820312 134.40625 70.921875 132.910156 C 111.402344 123.035156 320.714844 95.050781 451.75 132.359375 C 457.914062 134.117188 463.910156 128.960938 463.933594 121.964844 L 464.140625 58.550781 C 464.140625 53.59375 461.117188 49.195312 456.769531 48.03125 C 423.191406 38.675781 261.636719 1.625 66.140625 48.238281 C 61.867188 49.226562 59.050781 53.75 59.050781 58.613281 Z M 59.050781 58.613281 " fill-opacity="1" fill-rule="nonzero"/><path fill="#3c4851" d="M 27.636719 70.382812 C 27.386719 70.382812 27.144531 70.335938 26.914062 70.242188 C 26.679688 70.148438 26.476562 70.011719 26.300781 69.835938 C 26.121094 69.660156 25.984375 69.457031 25.886719 69.226562 C 25.792969 68.996094 25.742188 68.753906 25.742188 68.503906 C 25.742188 68.253906 25.789062 68.011719 25.886719 67.78125 C 25.980469 67.550781 26.117188 67.347656 26.292969 67.171875 C 26.472656 66.992188 26.675781 66.855469 26.90625 66.761719 C 27.136719 66.667969 27.378906 66.617188 27.628906 66.617188 C 27.878906 66.621094 28.117188 66.667969 28.351562 66.765625 C 28.582031 66.859375 28.785156 66.996094 28.960938 67.175781 C 29.136719 67.351562 29.273438 67.558594 29.367188 67.789062 C 29.460938 68.019531 29.507812 68.261719 29.507812 68.511719 C 29.503906 68.757812 29.457031 68.996094 29.363281 69.226562 C 29.265625 69.453125 29.128906 69.65625 28.957031 69.832031 C 28.78125 70.007812 28.578125 70.140625 28.351562 70.238281 C 28.121094 70.332031 27.882812 70.378906 27.636719 70.382812 Z M 27.636719 67.535156 C 27.367188 67.535156 27.136719 67.628906 26.945312 67.820312 C 26.753906 68.011719 26.65625 68.242188 26.65625 68.511719 C 26.65625 68.78125 26.753906 69.011719 26.945312 69.203125 C 27.136719 69.394531 27.367188 69.488281 27.636719 69.488281 C 27.90625 69.488281 28.136719 69.394531 28.328125 69.203125 C 28.515625 69.011719 28.613281 68.78125 28.613281 68.511719 C 28.601562 68.25 28.5 68.027344 28.3125 67.847656 C 28.121094 67.664062 27.898438 67.574219 27.636719 67.574219 Z M 27.636719 67.535156 " fill-opacity="1" fill-rule="nonzero"/><path fill="#3c4851" d="M 23.132812 52.429688 C 22.882812 52.429688 22.644531 52.382812 22.414062 52.285156 C 22.183594 52.191406 21.980469 52.054688 21.800781 51.875 C 21.625 51.699219 21.488281 51.496094 21.394531 51.265625 C 21.300781 51.035156 21.253906 50.792969 21.253906 50.542969 C 21.253906 50.292969 21.300781 50.054688 21.398438 49.824219 C 21.492188 49.59375 21.628906 49.390625 21.808594 49.214844 C 21.984375 49.039062 22.1875 48.902344 22.417969 48.808594 C 22.652344 48.710938 22.890625 48.664062 23.140625 48.667969 C 23.390625 48.667969 23.632812 48.714844 23.863281 48.8125 C 24.09375 48.910156 24.292969 49.046875 24.472656 49.222656 C 24.648438 49.402344 24.78125 49.605469 24.875 49.835938 C 24.96875 50.066406 25.015625 50.308594 25.015625 50.558594 C 25.015625 50.808594 24.964844 51.046875 24.871094 51.273438 C 24.773438 51.503906 24.636719 51.707031 24.460938 51.882812 C 24.285156 52.058594 24.082031 52.191406 23.851562 52.285156 C 23.621094 52.382812 23.382812 52.429688 23.132812 52.429688 Z M 23.132812 49.582031 C 22.863281 49.582031 22.632812 49.675781 22.441406 49.867188 C 22.253906 50.058594 22.15625 50.289062 22.15625 50.558594 C 22.15625 50.828125 22.253906 51.058594 22.441406 51.25 C 22.632812 51.441406 22.863281 51.535156 23.132812 51.535156 C 23.402344 51.535156 23.632812 51.441406 23.824219 51.25 C 24.015625 51.058594 24.109375 50.828125 24.109375 50.558594 C 24.109375 50.289062 24.011719 50.0625 23.820312 49.875 C 23.632812 49.683594 23.402344 49.589844 23.132812 49.589844 Z M 23.132812 49.582031 " fill-opacity="1" fill-rule="nonzero"/><path fill="#3c4851" d="M 497.175781 67.660156 C 496.929688 67.660156 496.691406 67.609375 496.460938 67.515625 C 496.230469 67.421875 496.03125 67.285156 495.855469 67.109375 C 495.679688 66.933594 495.542969 66.734375 495.449219 66.503906 C 495.355469 66.273438 495.304688 66.035156 495.304688 65.789062 C 495.304688 65.539062 495.355469 65.300781 495.449219 65.070312 C 495.542969 64.84375 495.679688 64.640625 495.855469 64.464844 C 496.03125 64.289062 496.230469 64.152344 496.460938 64.058594 C 496.691406 63.964844 496.929688 63.917969 497.175781 63.917969 C 497.425781 63.917969 497.664062 63.964844 497.894531 64.058594 C 498.121094 64.152344 498.324219 64.289062 498.5 64.464844 C 498.675781 64.640625 498.8125 64.84375 498.90625 65.070312 C 499 65.300781 499.046875 65.539062 499.046875 65.789062 C 499.046875 66.035156 499 66.273438 498.90625 66.503906 C 498.8125 66.734375 498.675781 66.933594 498.5 67.109375 C 498.324219 67.285156 498.121094 67.421875 497.894531 67.515625 C 497.664062 67.609375 497.425781 67.660156 497.175781 67.660156 Z M 497.175781 64.808594 C 496.90625 64.808594 496.675781 64.90625 496.488281 65.097656 C 496.296875 65.289062 496.199219 65.515625 496.199219 65.789062 C 496.199219 66.058594 496.296875 66.289062 496.488281 66.476562 C 496.675781 66.667969 496.90625 66.765625 497.175781 66.765625 C 497.449219 66.765625 497.675781 66.667969 497.867188 66.476562 C 498.058594 66.289062 498.15625 66.058594 498.15625 65.789062 C 498.15625 65.515625 498.058594 65.289062 497.867188 65.097656 C 497.675781 64.90625 497.449219 64.808594 497.175781 64.808594 Z M 497.175781 64.808594 " fill-opacity="1" fill-rule="nonzero"/><path fill="#3c4851" d="M 515.472656 77.554688 C 515.226562 77.554688 514.988281 77.507812 514.757812 77.414062 C 514.527344 77.316406 514.324219 77.183594 514.148438 77.007812 C 513.976562 76.832031 513.839844 76.628906 513.746094 76.398438 C 513.648438 76.171875 513.601562 75.933594 513.601562 75.683594 C 513.601562 75.4375 513.648438 75.195312 513.746094 74.96875 C 513.839844 74.738281 513.976562 74.535156 514.148438 74.359375 C 514.324219 74.183594 514.527344 74.050781 514.757812 73.957031 C 514.988281 73.859375 515.226562 73.8125 515.472656 73.8125 C 515.722656 73.8125 515.960938 73.859375 516.191406 73.957031 C 516.417969 74.050781 516.621094 74.183594 516.796875 74.359375 C 516.972656 74.535156 517.105469 74.738281 517.203125 74.96875 C 517.296875 75.195312 517.34375 75.4375 517.34375 75.683594 C 517.34375 75.929688 517.296875 76.167969 517.199219 76.398438 C 517.105469 76.628906 516.96875 76.828125 516.792969 77.003906 C 516.617188 77.179688 516.417969 77.316406 516.1875 77.410156 C 515.960938 77.503906 515.722656 77.554688 515.472656 77.554688 Z M 515.472656 74.707031 C 515.203125 74.703125 514.972656 74.796875 514.777344 74.988281 C 514.585938 75.175781 514.488281 75.40625 514.484375 75.675781 C 514.484375 75.949219 514.578125 76.179688 514.769531 76.371094 C 514.957031 76.5625 515.1875 76.660156 515.460938 76.660156 C 515.730469 76.660156 515.960938 76.566406 516.152344 76.375 C 516.34375 76.183594 516.441406 75.953125 516.441406 75.683594 C 516.441406 75.417969 516.347656 75.1875 516.15625 74.996094 C 515.96875 74.804688 515.742188 74.710938 515.472656 74.707031 Z M 515.472656 74.707031 " fill-opacity="1" fill-rule="nonzero"/><path fill="#3c4851" d="M 501.679688 49.664062 C 501.429688 49.664062 501.191406 49.617188 500.960938 49.523438 C 500.734375 49.425781 500.53125 49.292969 500.355469 49.117188 C 500.179688 48.941406 500.042969 48.738281 499.949219 48.507812 C 499.855469 48.28125 499.808594 48.039062 499.808594 47.792969 C 499.808594 47.542969 499.855469 47.304688 499.949219 47.078125 C 500.042969 46.847656 500.179688 46.644531 500.355469 46.46875 C 500.53125 46.292969 500.734375 46.160156 500.960938 46.0625 C 501.191406 45.96875 501.429688 45.921875 501.679688 45.921875 C 501.925781 45.921875 502.164062 45.96875 502.394531 46.0625 C 502.625 46.160156 502.828125 46.292969 503 46.46875 C 503.175781 46.644531 503.3125 46.847656 503.40625 47.078125 C 503.503906 47.304688 503.550781 47.542969 503.550781 47.792969 C 503.546875 48.039062 503.5 48.277344 503.40625 48.507812 C 503.308594 48.734375 503.175781 48.9375 503 49.113281 C 502.824219 49.289062 502.621094 49.421875 502.394531 49.519531 C 502.164062 49.613281 501.925781 49.664062 501.679688 49.664062 Z M 501.679688 46.816406 C 501.410156 46.8125 501.175781 46.90625 500.984375 47.097656 C 500.789062 47.285156 500.691406 47.515625 500.691406 47.785156 C 500.6875 48.054688 500.785156 48.289062 500.972656 48.480469 C 501.164062 48.671875 501.394531 48.769531 501.664062 48.769531 C 501.933594 48.769531 502.167969 48.675781 502.359375 48.484375 C 502.550781 48.292969 502.644531 48.0625 502.644531 47.792969 C 502.644531 47.523438 502.550781 47.296875 502.363281 47.105469 C 502.175781 46.914062 501.945312 46.820312 501.679688 46.816406 Z M 501.679688 46.816406 " fill-opacity="1" fill-rule="nonzero"/><g fill="#ffffff" fill-opacity="1"><g transform="translate(86.915893, 99.297196)"><g><path d="M 21.265625 -2.640625 C 20.765625 -2.566406 20.394531 -2.6875 20.15625 -3 L 5.5625 -26.703125 L 5.40625 -26.6875 L 8.203125 -7.03125 C 8.347656 -6.125 8.503906 -5.4375 8.671875 -4.96875 C 8.835938 -4.507812 9.164062 -4.140625 9.65625 -3.859375 C 10.15625 -3.578125 10.882812 -3.5 11.84375 -3.625 L 12.140625 -3.671875 C 12.460938 -3.710938 12.707031 -3.6875 12.875 -3.59375 C 13.039062 -3.5 13.171875 -3.21875 13.265625 -2.75 C 13.304688 -2.457031 13.265625 -2.191406 13.140625 -1.953125 C 13.015625 -1.722656 12.804688 -1.585938 12.515625 -1.546875 L 11.265625 -1.4375 C 9.742188 -1.289062 8.648438 -1.171875 7.984375 -1.078125 C 6.859375 -0.929688 5.226562 -0.660156 3.09375 -0.265625 C 2.789062 -0.222656 2.550781 -0.300781 2.375 -0.5 C 2.207031 -0.695312 2.101562 -0.941406 2.0625 -1.234375 C 2.019531 -1.734375 2.070312 -2.046875 2.21875 -2.171875 C 2.375 -2.296875 2.6875 -2.390625 3.15625 -2.453125 C 4.113281 -2.578125 4.789062 -2.84375 5.1875 -3.25 C 5.582031 -3.65625 5.796875 -4.101562 5.828125 -4.59375 C 5.867188 -5.09375 5.847656 -5.796875 5.765625 -6.703125 L 3.171875 -26.390625 C 3.035156 -27.421875 2.816406 -28.175781 2.515625 -28.65625 C 2.222656 -29.132812 1.835938 -29.453125 1.359375 -29.609375 C 0.878906 -29.765625 0.203125 -29.867188 -0.671875 -29.921875 C -0.816406 -29.929688 -1.019531 -29.941406 -1.28125 -29.953125 C -1.550781 -29.960938 -1.738281 -30.035156 -1.84375 -30.171875 C -1.945312 -30.304688 -2.019531 -30.539062 -2.0625 -30.875 C -2.113281 -31.28125 -2.046875 -31.5625 -1.859375 -31.71875 C -1.671875 -31.875 -1.34375 -31.984375 -0.875 -32.046875 C 1.070312 -32.304688 2.691406 -32.398438 3.984375 -32.328125 C 5.273438 -32.253906 6.441406 -31.898438 7.484375 -31.265625 C 8.535156 -30.640625 9.476562 -29.628906 10.3125 -28.234375 L 21.453125 -10.234375 L 21.59375 -10.25 L 28.078125 -35.6875 L 30.90625 -36.078125 C 32.726562 -36.316406 34.691406 -36.628906 36.796875 -37.015625 C 37.097656 -37.054688 37.332031 -36.976562 37.5 -36.78125 C 37.675781 -36.59375 37.785156 -36.347656 37.828125 -36.046875 C 37.867188 -35.546875 37.800781 -35.234375 37.625 -35.109375 C 37.457031 -34.992188 37.160156 -34.90625 36.734375 -34.84375 C 35.773438 -34.707031 35.085938 -34.429688 34.671875 -34.015625 C 34.253906 -33.609375 34.023438 -33.140625 33.984375 -32.609375 C 33.941406 -32.078125 33.953125 -31.398438 34.015625 -30.578125 L 36.703125 -10.90625 C 36.847656 -10.070312 37.015625 -9.40625 37.203125 -8.90625 C 37.390625 -8.40625 37.738281 -8.015625 38.25 -7.734375 C 38.757812 -7.453125 39.492188 -7.378906 40.453125 -7.515625 L 40.75 -7.5625 C 41.050781 -7.59375 41.28125 -7.5625 41.4375 -7.46875 C 41.601562 -7.375 41.734375 -7.097656 41.828125 -6.640625 C 41.867188 -6.347656 41.828125 -6.082031 41.703125 -5.84375 C 41.585938 -5.601562 41.378906 -5.460938 41.078125 -5.421875 C 38.953125 -5.234375 36.960938 -5.015625 35.109375 -4.765625 C 33.191406 -4.503906 31.164062 -4.175781 29.03125 -3.78125 C 28.726562 -3.738281 28.488281 -3.816406 28.3125 -4.015625 C 28.132812 -4.210938 28.023438 -4.457031 27.984375 -4.75 C 27.941406 -5.257812 28 -5.570312 28.15625 -5.6875 C 28.3125 -5.8125 28.625 -5.90625 29.09375 -5.96875 C 30.050781 -6.101562 30.738281 -6.375 31.15625 -6.78125 C 31.570312 -7.1875 31.800781 -7.65625 31.84375 -8.1875 C 31.882812 -8.71875 31.867188 -9.398438 31.796875 -10.234375 L 29.109375 -29.90625 L 28.96875 -29.890625 L 22.1875 -3.265625 C 22.09375 -2.910156 21.785156 -2.703125 21.265625 -2.640625 Z M 21.265625 -2.640625 "/></g></g></g><g fill="#ffffff" fill-opacity="1"><g transform="translate(135.078985, 93.024963)"><g><path d="M 3 -0.15625 C 2.695312 -0.125 2.460938 -0.207031 2.296875 -0.40625 C 2.128906 -0.613281 2.03125 -0.867188 2 -1.171875 C 1.976562 -1.660156 2.050781 -1.960938 2.21875 -2.078125 C 2.394531 -2.203125 2.703125 -2.285156 3.140625 -2.328125 C 4.085938 -2.429688 4.773438 -2.679688 5.203125 -3.078125 C 5.640625 -3.472656 5.898438 -3.925781 5.984375 -4.4375 C 6.066406 -4.945312 6.078125 -5.640625 6.015625 -6.515625 L 3.953125 -26.265625 C 3.828125 -27.140625 3.671875 -27.816406 3.484375 -28.296875 C 3.304688 -28.773438 2.960938 -29.164062 2.453125 -29.46875 C 1.953125 -29.769531 1.226562 -29.867188 0.28125 -29.765625 L -0.03125 -29.734375 C -0.320312 -29.703125 -0.550781 -29.734375 -0.71875 -29.828125 C -0.882812 -29.929688 -1.003906 -30.210938 -1.078125 -30.671875 C -1.109375 -30.972656 -1.0625 -31.238281 -0.9375 -31.46875 C -0.820312 -31.707031 -0.613281 -31.84375 -0.3125 -31.875 C 1.851562 -32 3.832031 -32.148438 5.625 -32.328125 C 7.625 -32.535156 9.695312 -32.804688 11.84375 -33.140625 C 12.144531 -33.171875 12.378906 -33.082031 12.546875 -32.875 C 12.710938 -32.675781 12.8125 -32.425781 12.84375 -32.125 C 12.863281 -31.632812 12.789062 -31.328125 12.625 -31.203125 C 12.457031 -31.085938 12.140625 -31.003906 11.671875 -30.953125 C 10.703125 -30.859375 10.003906 -30.609375 9.578125 -30.203125 C 9.160156 -29.804688 8.914062 -29.34375 8.84375 -28.8125 C 8.78125 -28.289062 8.773438 -27.613281 8.828125 -26.78125 L 10.890625 -7.03125 C 11.003906 -6.195312 11.148438 -5.523438 11.328125 -5.015625 C 11.503906 -4.515625 11.835938 -4.113281 12.328125 -3.8125 C 12.828125 -3.519531 13.5625 -3.421875 14.53125 -3.515625 L 14.828125 -3.546875 C 15.160156 -3.585938 15.40625 -3.554688 15.5625 -3.453125 C 15.71875 -3.359375 15.835938 -3.082031 15.921875 -2.625 C 15.953125 -2.320312 15.90625 -2.050781 15.78125 -1.8125 C 15.664062 -1.582031 15.457031 -1.453125 15.15625 -1.421875 C 13.019531 -1.304688 10.957031 -1.144531 8.96875 -0.9375 C 7.132812 -0.75 5.144531 -0.488281 3 -0.15625 Z M 3 -0.15625 "/></g></g></g><g fill="#ffffff" fill-opacity="1"><g transform="translate(157.385719, 90.693615)"><g><path d="M 13.296875 -0.0625 C 9.796875 0.21875 7.070312 -0.171875 5.125 -1.234375 C 3.1875 -2.304688 2.125 -4.023438 1.9375 -6.390625 C 1.84375 -7.578125 2.171875 -8.59375 2.921875 -9.4375 C 3.679688 -10.289062 4.710938 -10.769531 6.015625 -10.875 C 6.765625 -10.90625 7.351562 -10.757812 7.78125 -10.4375 C 8.207031 -10.125 8.4375 -9.816406 8.46875 -9.515625 C 8.46875 -9.484375 8.304688 -9.351562 7.984375 -9.125 C 7.671875 -8.894531 7.394531 -8.570312 7.15625 -8.15625 C 6.925781 -7.738281 6.84375 -7.179688 6.90625 -6.484375 C 7.03125 -4.910156 7.601562 -3.738281 8.625 -2.96875 C 9.644531 -2.207031 11.148438 -1.90625 13.140625 -2.0625 C 14.503906 -2.175781 15.679688 -2.539062 16.671875 -3.15625 C 17.660156 -3.769531 18.390625 -4.535156 18.859375 -5.453125 C 19.335938 -6.378906 19.539062 -7.328125 19.46875 -8.296875 C 19.363281 -9.492188 18.9375 -10.5 18.1875 -11.3125 C 17.4375 -12.125 16.539062 -12.773438 15.5 -13.265625 C 14.457031 -13.765625 13.035156 -14.332031 11.234375 -14.96875 C 9.171875 -15.695312 7.492188 -16.375 6.203125 -17 C 4.921875 -17.632812 3.796875 -18.523438 2.828125 -19.671875 C 1.867188 -20.828125 1.316406 -22.300781 1.171875 -24.09375 C 0.941406 -26.988281 1.757812 -29.226562 3.625 -30.8125 C 5.488281 -32.40625 8.03125 -33.328125 11.25 -33.578125 C 13.78125 -33.785156 16.023438 -33.429688 17.984375 -32.515625 C 19.953125 -31.609375 21.019531 -30.128906 21.1875 -28.078125 C 21.28125 -26.867188 20.953125 -25.835938 20.203125 -24.984375 C 19.453125 -24.140625 18.425781 -23.664062 17.125 -23.5625 C 16.351562 -23.53125 15.753906 -23.671875 15.328125 -23.984375 C 14.910156 -24.304688 14.6875 -24.617188 14.65625 -24.921875 C 14.65625 -24.953125 14.867188 -25.085938 15.296875 -25.328125 C 15.734375 -25.566406 16.109375 -25.898438 16.421875 -26.328125 C 16.742188 -26.765625 16.878906 -27.328125 16.828125 -28.015625 C 16.722656 -29.242188 16.171875 -30.171875 15.171875 -30.796875 C 14.171875 -31.421875 12.9375 -31.675781 11.46875 -31.5625 C 9.4375 -31.394531 7.929688 -30.789062 6.953125 -29.75 C 5.984375 -28.71875 5.554688 -27.507812 5.671875 -26.125 C 5.765625 -24.957031 6.160156 -24.007812 6.859375 -23.28125 C 7.554688 -22.550781 8.640625 -21.851562 10.109375 -21.1875 C 11.273438 -20.6875 12.550781 -20.1875 13.9375 -19.6875 C 16.132812 -18.894531 17.890625 -18.148438 19.203125 -17.453125 C 20.515625 -16.753906 21.644531 -15.789062 22.59375 -14.5625 C 23.550781 -13.34375 24.109375 -11.765625 24.265625 -9.828125 C 24.390625 -8.171875 23.984375 -6.625 23.046875 -5.1875 C 22.109375 -3.757812 20.78125 -2.59375 19.0625 -1.6875 C 17.351562 -0.78125 15.429688 -0.238281 13.296875 -0.0625 Z M 13.296875 -0.0625 "/></g></g></g><g fill="#ffffff" fill-opacity="1"><g transform="translate(188.826042, 88.290124)"><g/></g></g><g fill="#ffffff" fill-opacity="1"><g transform="translate(204.180577, 87.296614)"><g><path d="M 1.25 0.109375 C 0.945312 0.117188 0.71875 0.0195312 0.5625 -0.1875 C 0.40625 -0.40625 0.320312 -0.664062 0.3125 -0.96875 C 0.332031 -1.4375 0.40625 -1.726562 0.53125 -1.84375 C 0.65625 -1.96875 0.882812 -2.035156 1.21875 -2.046875 C 2.59375 -2.097656 3.613281 -2.351562 4.28125 -2.8125 C 4.945312 -3.269531 5.738281 -4.21875 6.65625 -5.65625 L 13.515625 -16.21875 L 6.75 -26.046875 C 5.90625 -27.242188 5.085938 -28.113281 4.296875 -28.65625 C 3.515625 -29.195312 2.566406 -29.5625 1.453125 -29.75 C 1.328125 -29.789062 1.128906 -29.828125 0.859375 -29.859375 C 0.585938 -29.898438 0.40625 -29.992188 0.3125 -30.140625 C 0.226562 -30.285156 0.175781 -30.523438 0.15625 -30.859375 C 0.144531 -31.328125 0.257812 -31.613281 0.5 -31.71875 C 0.75 -31.832031 1.054688 -31.894531 1.421875 -31.90625 C 1.796875 -31.914062 2.03125 -31.925781 2.125 -31.9375 C 4.46875 -32.019531 6.34375 -31.703125 7.75 -30.984375 C 9.15625 -30.273438 10.5625 -28.976562 11.96875 -27.09375 L 16.3125 -20.53125 L 21 -27.921875 C 21.382812 -28.597656 21.570312 -29.085938 21.5625 -29.390625 C 21.539062 -29.785156 21.289062 -30.039062 20.8125 -30.15625 C 20.34375 -30.28125 19.640625 -30.328125 18.703125 -30.296875 L 18.40625 -30.28125 C 18.070312 -30.269531 17.835938 -30.316406 17.703125 -30.421875 C 17.566406 -30.535156 17.472656 -30.828125 17.421875 -31.296875 C 17.410156 -31.597656 17.472656 -31.859375 17.609375 -32.078125 C 17.753906 -32.304688 17.960938 -32.425781 18.234375 -32.4375 C 20.378906 -32.40625 22.203125 -32.421875 23.703125 -32.484375 C 24.929688 -32.523438 26.609375 -32.640625 28.734375 -32.828125 C 29.035156 -32.835938 29.265625 -32.734375 29.421875 -32.515625 C 29.585938 -32.304688 29.675781 -32.050781 29.6875 -31.75 C 29.664062 -31.28125 29.585938 -30.984375 29.453125 -30.859375 C 29.328125 -30.742188 29.097656 -30.675781 28.765625 -30.65625 C 27.398438 -30.613281 26.382812 -30.363281 25.71875 -29.90625 C 25.050781 -29.445312 24.257812 -28.492188 23.34375 -27.046875 L 17.796875 -18.53125 L 26.953125 -6.453125 C 27.734375 -5.378906 28.46875 -4.550781 29.15625 -3.96875 C 29.84375 -3.394531 30.671875 -3.128906 31.640625 -3.171875 L 31.9375 -3.171875 C 32.269531 -3.191406 32.503906 -3.144531 32.640625 -3.03125 C 32.785156 -2.925781 32.882812 -2.640625 32.9375 -2.171875 C 32.945312 -1.867188 32.878906 -1.601562 32.734375 -1.375 C 32.585938 -1.15625 32.378906 -1.039062 32.109375 -1.03125 C 29.972656 -1.050781 27.972656 -1.03125 26.109375 -0.96875 C 24.203125 -0.894531 22.164062 -0.765625 20 -0.578125 C 19.695312 -0.566406 19.46875 -0.664062 19.3125 -0.875 C 19.164062 -1.09375 19.085938 -1.351562 19.078125 -1.65625 C 19.085938 -2.15625 19.179688 -2.457031 19.359375 -2.5625 C 19.535156 -2.664062 19.84375 -2.726562 20.28125 -2.75 C 20.945312 -2.769531 21.453125 -2.90625 21.796875 -3.15625 C 22.140625 -3.40625 22.300781 -3.726562 22.28125 -4.125 C 22.269531 -4.5 22.109375 -4.878906 21.796875 -5.265625 L 15.046875 -14.171875 L 9 -4.796875 C 8.613281 -4.242188 8.429688 -3.75 8.453125 -3.3125 C 8.460938 -2.914062 8.703125 -2.65625 9.171875 -2.53125 C 9.640625 -2.414062 10.34375 -2.378906 11.28125 -2.421875 L 11.5625 -2.421875 C 11.894531 -2.441406 12.128906 -2.394531 12.265625 -2.28125 C 12.410156 -2.175781 12.507812 -1.890625 12.5625 -1.421875 C 12.570312 -1.117188 12.503906 -0.851562 12.359375 -0.625 C 12.210938 -0.40625 12.007812 -0.289062 11.75 -0.28125 C 9.625 -0.300781 7.8125 -0.285156 6.3125 -0.234375 C 5.101562 -0.191406 3.414062 -0.078125 1.25 0.109375 Z M 1.25 0.109375 "/></g></g></g><g fill="#ffffff" fill-opacity="1"><g transform="translate(240.906583, 86.010744)"><g><path d="M 15.21875 0.421875 C 14.207031 -2.304688 12.597656 -6.648438 10.390625 -12.609375 C 8.191406 -18.566406 6.585938 -22.882812 5.578125 -25.5625 C 5.015625 -26.976562 4.460938 -27.96875 3.921875 -28.53125 C 3.378906 -29.101562 2.59375 -29.488281 1.5625 -29.6875 C 1.425781 -29.71875 1.222656 -29.753906 0.953125 -29.796875 C 0.691406 -29.847656 0.519531 -29.945312 0.4375 -30.09375 C 0.351562 -30.25 0.3125 -30.492188 0.3125 -30.828125 C 0.300781 -31.222656 0.398438 -31.488281 0.609375 -31.625 C 0.828125 -31.757812 1.171875 -31.832031 1.640625 -31.84375 C 4.148438 -31.851562 6.054688 -31.476562 7.359375 -30.71875 C 8.660156 -29.957031 9.703125 -28.59375 10.484375 -26.625 L 17.828125 -7.140625 L 17.984375 -7.140625 L 24.796875 -27.25 C 24.992188 -27.8125 25.085938 -28.242188 25.078125 -28.546875 C 25.078125 -29.015625 24.882812 -29.320312 24.5 -29.46875 C 24.125 -29.613281 23.484375 -29.6875 22.578125 -29.6875 L 22.28125 -29.6875 C 21.945312 -29.6875 21.710938 -29.742188 21.578125 -29.859375 C 21.441406 -29.972656 21.359375 -30.257812 21.328125 -30.71875 C 21.328125 -31.019531 21.398438 -31.28125 21.546875 -31.5 C 21.691406 -31.726562 21.898438 -31.84375 22.171875 -31.84375 C 24.335938 -31.75 26.15625 -31.703125 27.625 -31.703125 C 28.257812 -31.710938 29.472656 -31.757812 31.265625 -31.84375 L 32.328125 -31.890625 C 32.628906 -31.890625 32.851562 -31.78125 33 -31.5625 C 33.15625 -31.34375 33.234375 -31.082031 33.234375 -30.78125 C 33.203125 -30.3125 33.117188 -30.019531 32.984375 -29.90625 C 32.859375 -29.789062 32.628906 -29.734375 32.296875 -29.734375 C 30.859375 -29.722656 29.765625 -29.476562 29.015625 -29 C 28.265625 -28.53125 27.625 -27.628906 27.09375 -26.296875 C 26.101562 -23.566406 24.515625 -19.132812 22.328125 -13 C 20.140625 -6.863281 18.550781 -2.390625 17.5625 0.421875 Z M 15.21875 0.421875 "/></g></g></g><g fill="#ffffff" fill-opacity="1"><g transform="translate(277.554922, 86.006619)"><g/></g></g><g fill="#ffffff" fill-opacity="1"><g transform="translate(292.940233, 86.209861)"><g><path d="M 0.296875 0.171875 C -0.00390625 0.160156 -0.222656 0.0390625 -0.359375 -0.1875 C -0.503906 -0.414062 -0.570312 -0.679688 -0.5625 -0.984375 C -0.507812 -1.472656 -0.394531 -1.765625 -0.21875 -1.859375 C -0.0507812 -1.953125 0.144531 -1.992188 0.375 -1.984375 C 0.613281 -1.972656 0.765625 -1.96875 0.828125 -1.96875 C 1.828125 -1.925781 2.570312 -2.148438 3.0625 -2.640625 C 3.550781 -3.140625 3.945312 -3.707031 4.25 -4.34375 C 4.5625 -4.988281 4.773438 -5.429688 4.890625 -5.671875 L 14.484375 -26.015625 C 14.710938 -26.503906 14.832031 -26.894531 14.84375 -27.1875 C 14.863281 -27.78125 14.644531 -28.222656 14.1875 -28.515625 C 13.726562 -28.804688 13.085938 -29.050781 12.265625 -29.25 C 11.691406 -29.363281 11.34375 -29.472656 11.21875 -29.578125 C 11.09375 -29.679688 11.039062 -29.96875 11.0625 -30.4375 C 11.082031 -30.84375 11.203125 -31.109375 11.421875 -31.234375 C 11.640625 -31.359375 11.984375 -31.410156 12.453125 -31.390625 C 14.117188 -31.316406 15.4375 -31.132812 16.40625 -30.84375 C 17.382812 -30.550781 18.222656 -30.015625 18.921875 -29.234375 C 19.628906 -28.460938 20.269531 -27.300781 20.84375 -25.75 L 28.375 -4.703125 C 28.820312 -3.410156 29.265625 -2.4375 29.703125 -1.78125 C 30.148438 -1.125 30.84375 -0.765625 31.78125 -0.703125 L 32.078125 -0.6875 C 32.410156 -0.675781 32.640625 -0.609375 32.765625 -0.484375 C 32.898438 -0.367188 32.972656 -0.078125 32.984375 0.390625 C 32.972656 0.691406 32.890625 0.945312 32.734375 1.15625 C 32.578125 1.375 32.347656 1.476562 32.046875 1.46875 C 29.910156 1.28125 28.082031 1.15625 26.5625 1.09375 C 24.5625 1.007812 22.492188 0.972656 20.359375 0.984375 C 20.054688 0.972656 19.832031 0.851562 19.6875 0.625 C 19.539062 0.40625 19.472656 0.144531 19.484375 -0.15625 C 19.535156 -0.625 19.628906 -0.910156 19.765625 -1.015625 C 19.910156 -1.128906 20.148438 -1.175781 20.484375 -1.15625 C 21.617188 -1.113281 22.421875 -1.191406 22.890625 -1.390625 C 23.367188 -1.585938 23.617188 -1.96875 23.640625 -2.53125 C 23.660156 -2.96875 23.492188 -3.765625 23.140625 -4.921875 L 21.609375 -9.125 L 9.265625 -9.640625 C 8.347656 -7.609375 7.820312 -6.425781 7.6875 -6.09375 C 7.550781 -5.769531 7.484375 -5.59375 7.484375 -5.5625 C 7.035156 -4.3125 6.804688 -3.503906 6.796875 -3.140625 C 6.773438 -2.566406 7.007812 -2.175781 7.5 -1.96875 C 7.988281 -1.769531 8.929688 -1.640625 10.328125 -1.578125 L 10.625 -1.5625 C 10.957031 -1.550781 11.1875 -1.484375 11.3125 -1.359375 C 11.4375 -1.242188 11.507812 -0.953125 11.53125 -0.484375 C 11.519531 -0.179688 11.4375 0.0703125 11.28125 0.28125 C 11.125 0.5 10.894531 0.601562 10.59375 0.59375 C 8.46875 0.394531 6.65625 0.269531 5.15625 0.21875 C 4.082031 0.164062 2.460938 0.148438 0.296875 0.171875 Z M 10.296875 -11.734375 L 20.796875 -11.3125 L 16.28125 -24.390625 L 16.125 -24.390625 Z M 10.296875 -11.734375 "/></g></g></g><g fill="#ffffff" fill-opacity="1"><g transform="translate(329.626036, 87.747345)"><g><path d="M 3.078125 0.390625 C 2.785156 0.367188 2.570312 0.242188 2.4375 0.015625 C 2.300781 -0.210938 2.25 -0.476562 2.28125 -0.78125 C 2.34375 -1.28125 2.460938 -1.570312 2.640625 -1.65625 C 2.816406 -1.75 3.132812 -1.773438 3.59375 -1.734375 C 4.5625 -1.660156 5.28125 -1.78125 5.75 -2.09375 C 6.226562 -2.40625 6.535156 -2.800781 6.671875 -3.28125 C 6.816406 -3.757812 6.9375 -4.445312 7.03125 -5.34375 L 8.609375 -25.140625 C 8.691406 -26.140625 8.644531 -26.90625 8.46875 -27.4375 C 8.289062 -27.976562 7.972656 -28.382812 7.515625 -28.65625 C 7.066406 -28.925781 6.421875 -29.175781 5.578125 -29.40625 C 5.015625 -29.539062 4.671875 -29.660156 4.546875 -29.765625 C 4.429688 -29.878906 4.390625 -30.164062 4.421875 -30.625 C 4.453125 -31.03125 4.578125 -31.289062 4.796875 -31.40625 C 5.023438 -31.519531 5.367188 -31.554688 5.828125 -31.515625 C 7.898438 -31.367188 9.519531 -31.109375 10.6875 -30.734375 C 11.863281 -30.359375 12.878906 -29.769531 13.734375 -28.96875 C 14.597656 -28.175781 15.519531 -26.988281 16.5 -25.40625 L 28.84375 -6.40625 L 28.984375 -6.40625 L 30.171875 -23.515625 C 30.210938 -24.421875 30.195312 -25.117188 30.125 -25.609375 C 30.0625 -26.109375 29.816406 -26.546875 29.390625 -26.921875 C 28.972656 -27.304688 28.28125 -27.535156 27.3125 -27.609375 L 27.03125 -27.640625 C 26.695312 -27.660156 26.457031 -27.734375 26.3125 -27.859375 C 26.175781 -27.984375 26.109375 -28.273438 26.109375 -28.734375 C 26.128906 -29.035156 26.226562 -29.289062 26.40625 -29.5 C 26.59375 -29.707031 26.816406 -29.800781 27.078125 -29.78125 C 29.191406 -29.519531 30.785156 -29.347656 31.859375 -29.265625 C 32.484375 -29.222656 33.703125 -29.171875 35.515625 -29.109375 L 36.5625 -29.078125 C 36.863281 -29.046875 37.082031 -28.914062 37.21875 -28.6875 C 37.351562 -28.457031 37.410156 -28.191406 37.390625 -27.890625 C 37.316406 -27.398438 37.191406 -27.113281 37.015625 -27.03125 C 36.835938 -26.945312 36.519531 -26.921875 36.0625 -26.953125 C 35.09375 -27.023438 34.367188 -26.90625 33.890625 -26.59375 C 33.410156 -26.28125 33.101562 -25.882812 32.96875 -25.40625 C 32.832031 -24.925781 32.710938 -24.234375 32.609375 -23.328125 L 30.609375 1.796875 C 30.546875 2.234375 30.117188 2.421875 29.328125 2.359375 C 28.703125 2.316406 28.234375 2.0625 27.921875 1.59375 L 11 -24.953125 L 10.84375 -24.96875 L 9.46875 -5.171875 C 9.4375 -4.253906 9.453125 -3.550781 9.515625 -3.0625 C 9.578125 -2.570312 9.820312 -2.132812 10.25 -1.75 C 10.675781 -1.375 11.375 -1.148438 12.34375 -1.078125 L 12.640625 -1.0625 C 12.972656 -1.039062 13.207031 -0.960938 13.34375 -0.828125 C 13.488281 -0.703125 13.5625 -0.40625 13.5625 0.0625 C 13.53125 0.363281 13.429688 0.617188 13.265625 0.828125 C 13.097656 1.035156 12.863281 1.125 12.5625 1.09375 C 10.4375 0.832031 8.828125 0.660156 7.734375 0.578125 C 7.066406 0.523438 5.898438 0.46875 4.234375 0.40625 Z M 24.328125 -33.015625 C 23.585938 -33.097656 22.957031 -33.300781 22.4375 -33.625 C 21.914062 -33.957031 21.34375 -34.410156 20.71875 -34.984375 C 20.238281 -35.410156 19.835938 -35.738281 19.515625 -35.96875 C 19.203125 -36.195312 18.863281 -36.328125 18.5 -36.359375 C 18.03125 -36.390625 17.472656 -36.25 16.828125 -35.9375 C 16.191406 -35.632812 15.546875 -35.160156 14.890625 -34.515625 C 14.617188 -34.273438 14.316406 -34.164062 13.984375 -34.1875 C 13.679688 -34.21875 13.4375 -34.363281 13.25 -34.625 C 13.0625 -34.894531 13.050781 -35.203125 13.21875 -35.546875 C 13.8125 -36.773438 14.648438 -37.789062 15.734375 -38.59375 C 16.816406 -39.394531 18.023438 -39.75 19.359375 -39.65625 C 20.078125 -39.5625 20.6875 -39.363281 21.1875 -39.0625 C 21.6875 -38.757812 22.273438 -38.296875 22.953125 -37.671875 C 23.398438 -37.234375 23.78125 -36.898438 24.09375 -36.671875 C 24.414062 -36.453125 24.757812 -36.328125 25.125 -36.296875 C 25.59375 -36.265625 26.15625 -36.398438 26.8125 -36.703125 C 27.46875 -37.003906 28.117188 -37.484375 28.765625 -38.140625 C 29.054688 -38.390625 29.332031 -38.503906 29.59375 -38.484375 C 29.863281 -38.460938 30.082031 -38.363281 30.25 -38.1875 C 30.414062 -38.007812 30.488281 -37.785156 30.46875 -37.515625 C 30.457031 -37.316406 30.394531 -37.117188 30.28125 -36.921875 C 29.65625 -35.753906 28.820312 -34.785156 27.78125 -34.015625 C 26.738281 -33.242188 25.585938 -32.910156 24.328125 -33.015625 Z M 24.328125 -33.015625 "/></g></g></g><g fill="#ffffff" fill-opacity="1"><g transform="translate(370.39687, 90.883794)"><g><path d="M 18.09375 3.03125 C 14.945312 2.675781 12.253906 1.613281 10.015625 -0.15625 C 7.785156 -1.9375 6.148438 -4.144531 5.109375 -6.78125 C 4.078125 -9.414062 3.722656 -12.15625 4.046875 -15 C 4.429688 -18.488281 5.550781 -21.4375 7.40625 -23.84375 C 9.269531 -26.257812 11.503906 -28.015625 14.109375 -29.109375 C 16.722656 -30.210938 19.289062 -30.625 21.8125 -30.34375 C 25 -29.988281 27.722656 -28.921875 29.984375 -27.140625 C 32.253906 -25.367188 33.90625 -23.171875 34.9375 -20.546875 C 35.976562 -17.929688 36.335938 -15.203125 36.015625 -12.359375 C 35.628906 -8.878906 34.492188 -5.925781 32.609375 -3.5 C 30.722656 -1.070312 28.460938 0.691406 25.828125 1.796875 C 23.191406 2.898438 20.613281 3.3125 18.09375 3.03125 Z M 18.296875 0.8125 C 20.546875 1.0625 22.5 0.601562 24.15625 -0.5625 C 25.8125 -1.726562 27.140625 -3.40625 28.140625 -5.59375 C 29.148438 -7.78125 29.804688 -10.253906 30.109375 -13.015625 C 30.390625 -15.566406 30.265625 -17.957031 29.734375 -20.1875 C 29.210938 -22.414062 28.257812 -24.25 26.875 -25.6875 C 25.488281 -27.125 23.703125 -27.96875 21.515625 -28.21875 C 18.203125 -28.582031 15.550781 -27.457031 13.5625 -24.84375 C 11.570312 -22.226562 10.34375 -18.785156 9.875 -14.515625 C 9.582031 -11.921875 9.6875 -9.503906 10.1875 -7.265625 C 10.695312 -5.035156 11.628906 -3.191406 12.984375 -1.734375 C 14.335938 -0.273438 16.109375 0.570312 18.296875 0.8125 Z M 18.296875 0.8125 "/></g></g></g><g fill="#ffffff" fill-opacity="1"><g transform="translate(410.987883, 95.541027)"><g><path d="M 12.984375 2.875 C 9.515625 2.375 6.945312 1.390625 5.28125 -0.078125 C 3.625 -1.546875 2.960938 -3.453125 3.296875 -5.796875 C 3.472656 -6.984375 4.019531 -7.90625 4.9375 -8.5625 C 5.863281 -9.21875 6.972656 -9.457031 8.265625 -9.28125 C 9.015625 -9.132812 9.5625 -8.859375 9.90625 -8.453125 C 10.25 -8.054688 10.398438 -7.707031 10.359375 -7.40625 C 10.359375 -7.375 10.175781 -7.28125 9.8125 -7.125 C 9.457031 -6.976562 9.117188 -6.722656 8.796875 -6.359375 C 8.472656 -6.003906 8.265625 -5.484375 8.171875 -4.796875 C 7.941406 -3.242188 8.238281 -1.976562 9.0625 -1 C 9.882812 -0.0195312 11.285156 0.613281 13.265625 0.90625 C 14.617188 1.09375 15.847656 0.992188 16.953125 0.609375 C 18.054688 0.222656 18.941406 -0.363281 19.609375 -1.15625 C 20.273438 -1.957031 20.675781 -2.835938 20.8125 -3.796875 C 20.976562 -4.984375 20.785156 -6.050781 20.234375 -7 C 19.679688 -7.957031 18.953125 -8.796875 18.046875 -9.515625 C 17.140625 -10.242188 15.878906 -11.109375 14.265625 -12.109375 C 12.421875 -13.285156 10.9375 -14.320312 9.8125 -15.21875 C 8.695312 -16.125 7.796875 -17.238281 7.109375 -18.5625 C 6.429688 -19.894531 6.21875 -21.453125 6.46875 -23.234375 C 6.882812 -26.117188 8.175781 -28.128906 10.34375 -29.265625 C 12.507812 -30.398438 15.191406 -30.738281 18.390625 -30.28125 C 20.910156 -29.914062 23.023438 -29.070312 24.734375 -27.75 C 26.453125 -26.425781 27.164062 -24.742188 26.875 -22.703125 C 26.695312 -21.503906 26.144531 -20.578125 25.21875 -19.921875 C 24.300781 -19.265625 23.203125 -19.03125 21.921875 -19.21875 C 21.148438 -19.351562 20.59375 -19.617188 20.25 -20.015625 C 19.90625 -20.421875 19.753906 -20.773438 19.796875 -21.078125 C 19.796875 -21.109375 20.035156 -21.191406 20.515625 -21.328125 C 20.992188 -21.460938 21.4375 -21.703125 21.84375 -22.046875 C 22.25 -22.390625 22.5 -22.910156 22.59375 -23.609375 C 22.769531 -24.828125 22.4375 -25.847656 21.59375 -26.671875 C 20.757812 -27.503906 19.613281 -28.023438 18.15625 -28.234375 C 16.132812 -28.523438 14.535156 -28.273438 13.359375 -27.484375 C 12.179688 -26.691406 11.492188 -25.601562 11.296875 -24.21875 C 11.128906 -23.070312 11.304688 -22.0625 11.828125 -21.1875 C 12.347656 -20.3125 13.25 -19.394531 14.53125 -18.4375 C 15.5625 -17.6875 16.695312 -16.914062 17.9375 -16.125 C 19.914062 -14.863281 21.460938 -13.742188 22.578125 -12.765625 C 23.703125 -11.796875 24.59375 -10.609375 25.25 -9.203125 C 25.914062 -7.804688 26.109375 -6.148438 25.828125 -4.234375 C 25.597656 -2.585938 24.867188 -1.171875 23.640625 0.015625 C 22.410156 1.210938 20.851562 2.0625 18.96875 2.5625 C 17.09375 3.070312 15.097656 3.175781 12.984375 2.875 Z M 12.984375 2.875 "/></g></g></g></svg>