<svg xmlns="http://www.w3.org/2000/svg" xmlns:xlink="http://www.w3.org/1999/xlink" width="700" zoomAndPan="magnify" viewBox="0 0 525 181.5" height="242" preserveAspectRatio="xMidYMid meet" version="1.0"><defs><g/></defs><path fill="#3c4851" d="M 9.691406 78.542969 C 9.441406 78.542969 9.203125 78.496094 8.972656 78.398438 C 8.742188 78.304688 8.539062 78.167969 8.363281 77.992188 C 8.183594 77.816406 8.050781 77.609375 7.953125 77.378906 C 7.859375 77.148438 7.8125 76.910156 7.8125 76.660156 C 7.8125 76.410156 7.859375 76.171875 7.957031 75.941406 C 8.054688 75.710938 8.191406 75.507812 8.367188 75.332031 C 8.542969 75.15625 8.746094 75.019531 8.976562 74.925781 C 9.207031 74.832031 9.449219 74.785156 9.699219 74.785156 C 9.949219 74.785156 10.1875 74.835938 10.417969 74.929688 C 10.648438 75.027344 10.851562 75.164062 11.027344 75.339844 C 11.203125 75.519531 11.335938 75.722656 11.429688 75.953125 C 11.523438 76.183594 11.570312 76.425781 11.570312 76.675781 C 11.570312 76.921875 11.519531 77.160156 11.425781 77.390625 C 11.328125 77.617188 11.191406 77.820312 11.015625 77.996094 C 10.839844 78.171875 10.636719 78.304688 10.40625 78.402344 C 10.179688 78.496094 9.941406 78.542969 9.691406 78.542969 Z M 9.691406 75.699219 C 9.421875 75.699219 9.191406 75.792969 9 75.984375 C 8.8125 76.175781 8.714844 76.40625 8.714844 76.675781 C 8.714844 76.945312 8.8125 77.171875 9 77.363281 C 9.191406 77.554688 9.421875 77.648438 9.691406 77.648438 C 9.960938 77.648438 10.191406 77.554688 10.382812 77.363281 C 10.570312 77.171875 10.667969 76.945312 10.667969 76.675781 C 10.667969 76.40625 10.570312 76.175781 10.382812 75.984375 C 10.191406 75.792969 9.960938 75.699219 9.691406 75.699219 Z M 9.691406 75.699219 " fill-opacity="1" fill-rule="nonzero"/><path fill="#ae84c8" d="M 492.148438 85.996094 L 517.363281 89.308594 C 521.421875 89.847656 523.375 95.109375 520.832031 98.652344 L 498.96875 129.015625 L 513.230469 171.441406 C 514.625 175.59375 511.46875 179.859375 507.523438 179.164062 L 454.972656 169.894531 L 446.492188 148.613281 L 484.300781 113.382812 Z M 492.148438 85.996094 " fill-opacity="1" fill-rule="nonzero"/><path fill="#6d4881" d="M 447.914062 147.273438 L 482.585938 149.351562 L 455.140625 169.925781 L 454.972656 169.894531 L 446.492188 148.613281 Z M 447.914062 147.273438 " fill-opacity="1" fill-rule="nonzero"/><path fill="#3c4851" d="M 488.339844 97.0625 C 488.269531 97.035156 488.214844 96.988281 488.171875 96.925781 C 488.109375 96.835938 488.089844 96.738281 488.109375 96.628906 C 488.128906 96.523438 488.1875 96.4375 488.277344 96.378906 C 488.371094 96.316406 497.402344 90.035156 505.09375 75.40625 C 505.136719 75.300781 505.214844 75.222656 505.324219 75.183594 C 505.433594 75.144531 505.539062 75.148438 505.644531 75.203125 C 505.746094 75.257812 505.8125 75.339844 505.84375 75.453125 C 505.871094 75.566406 505.855469 75.671875 505.789062 75.769531 C 502.714844 81.714844 498.894531 87.125 494.316406 92.007812 C 492.621094 93.855469 490.765625 95.53125 488.753906 97.03125 C 488.621094 97.121094 488.484375 97.128906 488.339844 97.0625 Z M 488.339844 97.0625 " fill-opacity="1" fill-rule="nonzero"/><path fill="#3c4851" d="M 503.773438 78.605469 C 503.773438 78.605469 499.769531 70.976562 509.929688 62.484375 C 509.929688 62.484375 514.707031 72.105469 503.773438 78.605469 Z M 503.773438 78.605469 " fill-opacity="1" fill-rule="nonzero"/><path fill="#3c4851" d="M 501.398438 87.167969 C 501.398438 87.167969 503.652344 81.128906 513.460938 82.550781 C 513.460938 82.550781 510.492188 90.035156 501.398438 87.167969 Z M 501.398438 87.167969 " fill-opacity="1" fill-rule="nonzero"/><path fill="#3c4851" d="M 496.019531 85.351562 C 496.019531 85.351562 499.882812 82.144531 496.320312 75.304688 C 496.320312 75.304688 491.589844 79.414062 496.019531 85.351562 Z M 496.019531 85.351562 " fill-opacity="1" fill-rule="nonzero"/><path fill="#3c4851" d="M 494.835938 91.050781 L 494.753906 91.050781 C 494.667969 90.980469 494.621094 90.894531 494.609375 90.785156 C 494.597656 90.675781 494.625 90.578125 494.691406 90.492188 C 494.804688 90.355469 497.515625 87.148438 504.679688 86.089844 C 504.78125 86.082031 504.875 86.109375 504.953125 86.175781 C 505.035156 86.238281 505.082031 86.324219 505.097656 86.425781 C 505.113281 86.527344 505.089844 86.621094 505.03125 86.707031 C 504.972656 86.792969 504.894531 86.847656 504.792969 86.867188 C 497.960938 87.90625 495.324219 91.019531 495.304688 91.019531 C 495.15625 91.140625 495 91.152344 494.835938 91.050781 Z M 494.835938 91.050781 " fill-opacity="1" fill-rule="nonzero"/><path fill="#3c4851" d="M 493.164062 92.804688 C 493.121094 92.78125 493.078125 92.75 493.042969 92.710938 C 492.964844 92.636719 492.925781 92.546875 492.925781 92.4375 C 492.925781 92.328125 492.964844 92.238281 493.042969 92.164062 C 496.050781 89.410156 495.78125 82.21875 495.78125 82.144531 C 495.777344 82.035156 495.808594 81.941406 495.882812 81.863281 C 495.957031 81.785156 496.046875 81.742188 496.15625 81.738281 C 496.265625 81.734375 496.359375 81.769531 496.441406 81.839844 C 496.523438 81.914062 496.566406 82.003906 496.570312 82.113281 C 496.601562 83.503906 496.519531 84.890625 496.320312 86.265625 C 495.886719 89.296875 494.960938 91.457031 493.570312 92.753906 C 493.445312 92.847656 493.3125 92.863281 493.164062 92.804688 Z M 493.164062 92.804688 " fill-opacity="1" fill-rule="nonzero"/><path fill="#ae84c8" d="M 32.746094 85.996094 L 7.53125 89.308594 C 3.472656 89.847656 1.523438 95.109375 4.066406 98.652344 L 25.925781 129.015625 L 11.664062 171.441406 C 10.273438 175.59375 13.429688 179.859375 17.375 179.164062 L 69.921875 169.894531 L 78.402344 148.613281 L 40.59375 113.382812 Z M 32.746094 85.996094 " fill-opacity="1" fill-rule="nonzero"/><path fill="#6d4881" d="M 76.980469 147.273438 L 42.308594 149.351562 L 69.753906 169.925781 L 69.921875 169.894531 L 78.402344 148.613281 Z M 76.980469 147.273438 " fill-opacity="1" fill-rule="nonzero"/><path fill="#3c4851" d="M 36.472656 97.0625 C 36.542969 97.03125 36.597656 96.988281 36.640625 96.925781 C 36.703125 96.835938 36.722656 96.738281 36.703125 96.628906 C 36.683594 96.523438 36.628906 96.4375 36.535156 96.378906 C 36.441406 96.316406 27.410156 90.035156 19.71875 75.40625 C 19.675781 75.300781 19.601562 75.222656 19.488281 75.183594 C 19.378906 75.140625 19.273438 75.148438 19.171875 75.203125 C 19.066406 75.257812 19 75.339844 18.972656 75.453125 C 18.941406 75.566406 18.960938 75.671875 19.023438 75.769531 C 22.082031 81.710938 25.886719 87.121094 30.441406 92.007812 C 32.183594 93.859375 34.085938 95.535156 36.140625 97.03125 C 36.25 97.089844 36.359375 97.097656 36.472656 97.0625 Z M 36.472656 97.0625 " fill-opacity="1" fill-rule="nonzero"/><path fill="#3c4851" d="M 21.039062 78.605469 C 21.039062 78.605469 25.035156 70.976562 14.882812 62.484375 C 14.882812 62.484375 10.085938 72.105469 21.039062 78.605469 Z M 21.039062 78.605469 " fill-opacity="1" fill-rule="nonzero"/><path fill="#3c4851" d="M 23.414062 87.167969 C 23.414062 87.167969 21.164062 81.128906 11.351562 82.550781 C 11.351562 82.550781 14.34375 90.035156 23.414062 87.167969 Z M 23.414062 87.167969 " fill-opacity="1" fill-rule="nonzero"/><path fill="#3c4851" d="M 28.792969 85.351562 C 28.792969 85.351562 24.929688 82.113281 28.492188 75.304688 C 28.492188 75.304688 33.226562 79.414062 28.792969 85.351562 Z M 28.792969 85.351562 " fill-opacity="1" fill-rule="nonzero"/><path fill="#3c4851" d="M 29.976562 91.050781 L 30.058594 91.050781 C 30.167969 90.980469 30.230469 90.878906 30.242188 90.75 C 30.257812 90.621094 30.214844 90.507812 30.121094 90.417969 C 30.007812 90.285156 27.296875 87.074219 20.132812 86.015625 C 20.027344 86 19.929688 86.027344 19.84375 86.089844 C 19.753906 86.15625 19.703125 86.242188 19.6875 86.347656 C 19.667969 86.457031 19.691406 86.550781 19.753906 86.640625 C 19.816406 86.726562 19.902344 86.78125 20.011719 86.796875 C 26.851562 87.832031 29.476562 90.949219 29.507812 90.949219 C 29.640625 91.097656 29.792969 91.132812 29.976562 91.050781 Z M 29.976562 91.050781 " fill-opacity="1" fill-rule="nonzero"/><path fill="#3c4851" d="M 31.648438 92.804688 C 31.695312 92.78125 31.734375 92.75 31.773438 92.710938 C 31.847656 92.636719 31.886719 92.546875 31.886719 92.4375 C 31.886719 92.328125 31.847656 92.238281 31.773438 92.164062 C 28.730469 89.378906 29 82.21875 29 82.113281 C 29.007812 82.003906 28.972656 81.910156 28.898438 81.832031 C 28.824219 81.753906 28.734375 81.710938 28.625 81.707031 C 28.515625 81.703125 28.421875 81.738281 28.339844 81.808594 C 28.261719 81.882812 28.214844 81.972656 28.210938 82.082031 C 28.179688 83.472656 28.261719 84.859375 28.460938 86.234375 C 28.894531 89.265625 29.820312 91.425781 31.210938 92.722656 C 31.339844 92.84375 31.484375 92.871094 31.648438 92.804688 Z M 31.648438 92.804688 " fill-opacity="1" fill-rule="nonzero"/><path fill="#ae84c8" d="M 63.941406 64.082031 L 41.382812 68.234375 C 35.738281 69.273438 31.792969 74.980469 32.34375 81.285156 L 37.65625 141.949219 C 38.082031 146.820312 41.894531 150.472656 46.304688 150.253906 L 86.792969 148.179688 C 92.90625 147.867188 98.148438 143.226562 99.765625 136.6875 L 104.644531 116.960938 Z M 63.941406 64.082031 " fill-opacity="1" fill-rule="nonzero"/><path fill="#6d4881" d="M 103.464844 121.914062 L 82.410156 122.402344 L 65.03125 130.3125 L 91.785156 146.921875 C 92.785156 146.417969 93.722656 145.8125 94.589844 145.101562 C 95.457031 144.394531 96.238281 143.597656 96.929688 142.714844 C 97.625 141.832031 98.210938 140.886719 98.695312 139.875 C 99.179688 138.863281 99.546875 137.8125 99.796875 136.71875 Z M 103.464844 121.914062 " fill-opacity="1" fill-rule="nonzero"/><path fill="#ae84c8" d="M 460.953125 64.082031 L 483.511719 68.234375 C 489.160156 69.273438 493.105469 74.980469 492.554688 81.285156 L 487.238281 141.949219 C 486.8125 146.820312 483.003906 150.472656 478.589844 150.253906 L 438.105469 148.179688 C 431.992188 147.867188 426.75 143.226562 425.128906 136.6875 L 420.25 116.960938 Z M 460.953125 64.082031 " fill-opacity="1" fill-rule="nonzero"/><path fill="#6d4881" d="M 421.433594 121.914062 L 442.484375 122.402344 L 459.925781 128.722656 L 433.113281 146.890625 C 432.109375 146.386719 431.175781 145.78125 430.304688 145.070312 C 429.4375 144.363281 428.65625 143.566406 427.964844 142.683594 C 427.273438 141.800781 426.683594 140.855469 426.199219 139.84375 C 425.71875 138.832031 425.347656 137.78125 425.097656 136.6875 Z M 421.433594 121.914062 " fill-opacity="1" fill-rule="nonzero"/><path fill="#3c4851" d="M 50.042969 69.375 C 50.042969 69.375 44.625 72.386719 40.605469 68.816406 C 36.589844 65.246094 34.148438 64.601562 34.148438 64.601562 C 34.148438 64.601562 47.5625 59.078125 50.042969 69.375 Z M 50.042969 69.375 " fill-opacity="1" fill-rule="nonzero"/><path fill="#3c4851" d="M 43.109375 58.371094 C 43.109375 58.371094 37.6875 61.382812 33.671875 57.8125 C 29.652344 54.242188 27.226562 53.597656 27.226562 53.597656 C 27.226562 53.597656 40.65625 48.074219 43.109375 58.371094 Z M 43.109375 58.371094 " fill-opacity="1" fill-rule="nonzero"/><path fill="#3c4851" d="M 38.570312 46.445312 C 38.570312 46.445312 32.644531 48.230469 29.476562 43.890625 C 26.3125 39.550781 24.070312 38.398438 24.070312 38.398438 C 24.070312 38.398438 38.375 35.855469 38.570312 46.445312 Z M 38.570312 46.445312 " fill-opacity="1" fill-rule="nonzero"/><path fill="#3c4851" d="M 52.128906 70.527344 C 52.128906 70.527344 57.839844 68.121094 57.496094 62.753906 C 57.152344 57.386719 58.160156 55.070312 58.160156 55.070312 C 58.160156 55.070312 45.484375 62.246094 52.128906 70.527344 Z M 52.128906 70.527344 " fill-opacity="1" fill-rule="nonzero"/><path fill="#3c4851" d="M 45.390625 60.003906 C 45.390625 60.003906 51.101562 57.59375 50.757812 52.214844 C 50.417969 46.839844 51.421875 44.542969 51.421875 44.542969 C 51.421875 44.542969 38.789062 51.71875 45.390625 60.003906 Z M 45.390625 60.003906 " fill-opacity="1" fill-rule="nonzero"/><path fill="#3c4851" d="M 39.527344 46.363281 C 39.527344 46.363281 45.527344 44.804688 45.960938 39.449219 C 46.398438 34.089844 47.726562 31.941406 47.726562 31.941406 C 47.726562 31.941406 34.191406 37.214844 39.527344 46.363281 Z M 39.527344 46.363281 " fill-opacity="1" fill-rule="nonzero"/><path fill="#3c4851" d="M 36.691406 36.863281 C 36.691406 36.863281 30.828125 34.890625 30.753906 29.511719 C 30.683594 24.136719 29.519531 21.902344 29.519531 21.902344 C 29.519531 21.902344 42.660156 28.132812 36.691406 36.863281 Z M 36.691406 36.863281 " fill-opacity="1" fill-rule="nonzero"/><path fill="#3c4851" d="M 62.15625 80.164062 C 62.195312 80.246094 62.214844 80.332031 62.21875 80.421875 C 62.226562 80.597656 62.167969 80.753906 62.050781 80.882812 C 61.929688 81.015625 61.785156 81.085938 61.605469 81.097656 C 61.324219 81.105469 61.121094 80.984375 60.996094 80.734375 C 60.878906 80.609375 60.527344 80.339844 60.183594 80.070312 C 55.664062 76.574219 51.800781 72.460938 48.597656 67.726562 C 42.472656 58.851562 38.019531 47.699219 35.375 34.589844 C 35.339844 34.414062 35.371094 34.253906 35.472656 34.109375 C 35.570312 33.960938 35.707031 33.875 35.882812 33.84375 C 36.054688 33.808594 36.214844 33.839844 36.359375 33.9375 C 36.507812 34.03125 36.597656 34.167969 36.628906 34.339844 C 40.710938 54.542969 48.902344 69.636719 60.972656 79.0625 C 61.722656 79.644531 62.09375 79.890625 62.15625 80.164062 Z M 62.15625 80.164062 " fill-opacity="1" fill-rule="nonzero"/><path fill="#6d4881" d="M 64.9375 32.960938 C 64.992188 33.332031 64.972656 33.699219 64.878906 34.058594 C 64.785156 34.421875 64.625 34.753906 64.402344 35.054688 C 64.175781 35.351562 63.902344 35.597656 63.578125 35.789062 C 63.257812 35.980469 62.910156 36.101562 62.539062 36.152344 C 62.167969 36.207031 61.800781 36.1875 61.4375 36.09375 C 61.078125 36 60.746094 35.839844 60.445312 35.613281 C 60.148438 35.390625 59.902344 35.113281 59.710938 34.792969 C 59.519531 34.46875 59.398438 34.121094 59.347656 33.75 C 59.296875 33.382812 59.316406 33.015625 59.410156 32.652344 C 59.503906 32.289062 59.664062 31.957031 59.890625 31.660156 C 60.113281 31.359375 60.386719 31.113281 60.710938 30.925781 C 61.035156 30.734375 61.382812 30.613281 61.753906 30.5625 C 62.121094 30.507812 62.488281 30.527344 62.851562 30.621094 C 63.214844 30.714844 63.542969 30.875 63.84375 31.097656 C 64.144531 31.324219 64.386719 31.597656 64.578125 31.917969 C 64.765625 32.242188 64.886719 32.589844 64.9375 32.960938 Z M 64.9375 32.960938 " fill-opacity="1" fill-rule="nonzero"/><path fill="#3c4851" d="M 68.0625 69.398438 C 67.914062 69.417969 67.773438 69.390625 67.640625 69.3125 C 67.511719 69.234375 67.421875 69.125 67.367188 68.980469 C 63.53125 57.816406 61.429688 46.335938 61.054688 34.539062 C 61.050781 34.359375 61.109375 34.203125 61.234375 34.074219 C 61.359375 33.941406 61.511719 33.875 61.691406 33.875 C 61.871094 33.867188 62.027344 33.925781 62.160156 34.050781 C 62.289062 34.171875 62.359375 34.324219 62.363281 34.507812 C 62.730469 46.15625 64.804688 57.492188 68.59375 68.515625 C 68.65625 68.683594 68.648438 68.851562 68.574219 69.015625 C 68.5 69.179688 68.378906 69.292969 68.210938 69.355469 Z M 68.0625 69.398438 " fill-opacity="1" fill-rule="nonzero"/><path fill="#6d4881" d="M 69.910156 40.144531 C 69.964844 40.515625 69.945312 40.878906 69.851562 41.242188 C 69.757812 41.605469 69.597656 41.9375 69.375 42.234375 C 69.148438 42.535156 68.875 42.78125 68.554688 42.96875 C 68.230469 43.160156 67.886719 43.28125 67.515625 43.335938 C 67.144531 43.386719 66.777344 43.367188 66.414062 43.277344 C 66.050781 43.183594 65.722656 43.023438 65.421875 42.800781 C 65.121094 42.574219 64.878906 42.300781 64.6875 41.980469 C 64.496094 41.65625 64.375 41.3125 64.320312 40.941406 C 64.269531 40.570312 64.289062 40.203125 64.378906 39.839844 C 64.472656 39.476562 64.632812 39.148438 64.855469 38.847656 C 65.082031 38.546875 65.355469 38.300781 65.675781 38.113281 C 65.996094 37.921875 66.34375 37.796875 66.714844 37.746094 C 67.085938 37.695312 67.453125 37.714844 67.8125 37.808594 C 68.175781 37.902344 68.507812 38.058594 68.808594 38.285156 C 69.105469 38.507812 69.351562 38.78125 69.542969 39.105469 C 69.734375 39.425781 69.859375 39.773438 69.910156 40.144531 Z M 69.910156 40.144531 " fill-opacity="1" fill-rule="nonzero"/><path fill="#6d4881" d="M 58.855469 42.59375 C 58.910156 42.964844 58.886719 43.332031 58.796875 43.691406 C 58.703125 44.054688 58.542969 44.386719 58.316406 44.6875 C 58.09375 44.984375 57.820312 45.230469 57.496094 45.421875 C 57.175781 45.609375 56.828125 45.734375 56.457031 45.785156 C 56.089844 45.839844 55.722656 45.816406 55.359375 45.726562 C 54.996094 45.632812 54.664062 45.472656 54.367188 45.25 C 54.066406 45.023438 53.820312 44.75 53.628906 44.429688 C 53.441406 44.105469 53.316406 43.761719 53.265625 43.390625 C 53.210938 43.019531 53.230469 42.652344 53.324219 42.289062 C 53.417969 41.929688 53.574219 41.597656 53.800781 41.296875 C 54.023438 40.996094 54.296875 40.753906 54.621094 40.5625 C 54.941406 40.371094 55.289062 40.25 55.660156 40.195312 C 56.03125 40.140625 56.398438 40.160156 56.761719 40.253906 C 57.121094 40.347656 57.453125 40.507812 57.753906 40.730469 C 58.054688 40.957031 58.300781 41.230469 58.492188 41.550781 C 58.679688 41.875 58.804688 42.222656 58.855469 42.59375 Z M 58.855469 42.59375 " fill-opacity="1" fill-rule="nonzero"/><path fill="#3c4851" d="M 62.882812 48.085938 L 62.695312 48.085938 C 62.515625 48.058594 62.375 47.972656 62.265625 47.824219 C 62.160156 47.679688 62.117188 47.515625 62.148438 47.335938 C 62.148438 47.171875 62.78125 43.132812 65.261719 40.910156 C 65.398438 40.8125 65.550781 40.773438 65.714844 40.792969 C 65.882812 40.808594 66.023438 40.882812 66.132812 41.007812 C 66.246094 41.136719 66.300781 41.28125 66.296875 41.449219 C 66.296875 41.617188 66.238281 41.765625 66.121094 41.886719 C 64.046875 43.785156 63.421875 47.492188 63.421875 47.535156 C 63.375 47.847656 63.195312 48.03125 62.882812 48.085938 Z M 62.882812 48.085938 " fill-opacity="1" fill-rule="nonzero"/><path fill="#3c4851" d="M 64.242188 55.859375 C 64.074219 55.886719 63.917969 55.847656 63.777344 55.75 C 63.636719 55.652344 63.550781 55.519531 63.515625 55.351562 C 62.625 51.199219 57.847656 45.15625 56.054688 44.171875 C 55.894531 44.085938 55.792969 43.957031 55.742188 43.785156 C 55.691406 43.613281 55.707031 43.445312 55.792969 43.289062 C 55.882812 43.132812 56.011719 43.03125 56.183594 42.980469 C 56.351562 42.929688 56.519531 42.949219 56.675781 43.027344 C 58.753906 44.160156 63.796875 50.460938 64.785156 55.082031 C 64.824219 55.257812 64.796875 55.421875 64.699219 55.570312 C 64.601562 55.722656 64.460938 55.816406 64.285156 55.851562 Z M 64.242188 55.859375 " fill-opacity="1" fill-rule="nonzero"/><path fill="#3c4851" d="M 473.183594 69.375 C 473.183594 69.375 478.601562 72.386719 482.617188 68.816406 C 486.636719 65.246094 489.074219 64.601562 489.074219 64.601562 C 489.074219 64.601562 475.582031 59.078125 473.183594 69.375 Z M 473.183594 69.375 " fill-opacity="1" fill-rule="nonzero"/><path fill="#3c4851" d="M 480.066406 58.371094 C 480.066406 58.371094 485.484375 61.382812 489.5 57.8125 C 493.519531 54.242188 495.949219 53.597656 495.949219 53.597656 C 495.949219 53.597656 482.527344 48.074219 480.066406 58.371094 Z M 480.066406 58.371094 " fill-opacity="1" fill-rule="nonzero"/><path fill="#3c4851" d="M 484.601562 46.445312 C 484.601562 46.445312 490.527344 48.230469 493.695312 43.890625 C 496.863281 39.550781 499.136719 38.398438 499.136719 38.398438 C 499.136719 38.398438 484.800781 35.855469 484.601562 46.445312 Z M 484.601562 46.445312 " fill-opacity="1" fill-rule="nonzero"/><path fill="#3c4851" d="M 471.042969 70.527344 C 471.042969 70.527344 465.34375 68.121094 465.675781 62.753906 C 466.007812 57.386719 465.011719 55.070312 465.011719 55.070312 C 465.011719 55.070312 477.65625 62.246094 471.042969 70.527344 Z M 471.042969 70.527344 " fill-opacity="1" fill-rule="nonzero"/><path fill="#3c4851" d="M 477.78125 60.003906 C 477.78125 60.003906 472.070312 57.59375 472.414062 52.214844 C 472.757812 46.839844 471.75 44.542969 471.75 44.542969 C 471.75 44.542969 484.382812 51.71875 477.78125 60.003906 Z M 477.78125 60.003906 " fill-opacity="1" fill-rule="nonzero"/><path fill="#3c4851" d="M 483.648438 46.363281 C 483.648438 46.363281 477.644531 44.804688 477.210938 39.449219 C 476.773438 34.089844 475.445312 31.941406 475.445312 31.941406 C 475.445312 31.941406 488.980469 37.214844 483.648438 46.363281 Z M 483.648438 46.363281 " fill-opacity="1" fill-rule="nonzero"/><path fill="#3c4851" d="M 486.480469 36.863281 C 486.480469 36.863281 492.347656 34.890625 492.417969 29.511719 C 492.492188 24.136719 493.652344 21.902344 493.652344 21.902344 C 493.652344 21.902344 480.511719 28.132812 486.480469 36.863281 Z M 486.480469 36.863281 " fill-opacity="1" fill-rule="nonzero"/><path fill="#3c4851" d="M 462.199219 79.0625 C 474.273438 69.582031 482.464844 54.542969 486.542969 34.339844 C 486.589844 34.183594 486.6875 34.0625 486.828125 33.976562 C 486.96875 33.890625 487.121094 33.867188 487.285156 33.898438 C 487.445312 33.929688 487.574219 34.011719 487.675781 34.144531 C 487.773438 34.277344 487.816406 34.425781 487.800781 34.589844 C 485.152344 47.699219 480.699219 58.851562 474.554688 67.726562 C 471.355469 72.445312 467.5 76.550781 462.988281 80.039062 C 462.644531 80.308594 462.304688 80.578125 462.179688 80.703125 C 462.050781 80.953125 461.847656 81.074219 461.566406 81.066406 C 461.390625 81.054688 461.242188 80.984375 461.125 80.851562 C 461.003906 80.722656 460.949219 80.566406 460.953125 80.390625 C 460.957031 80.300781 460.980469 80.214844 461.015625 80.132812 C 461.128906 79.890625 461.453125 79.644531 462.199219 79.0625 Z M 462.199219 79.0625 " fill-opacity="1" fill-rule="nonzero"/><path fill="#6d4881" d="M 458.234375 32.960938 C 458.179688 33.332031 458.199219 33.699219 458.292969 34.058594 C 458.386719 34.421875 458.546875 34.753906 458.773438 35.054688 C 458.996094 35.351562 459.269531 35.597656 459.59375 35.789062 C 459.914062 35.980469 460.261719 36.101562 460.632812 36.152344 C 461.003906 36.207031 461.371094 36.1875 461.734375 36.09375 C 462.097656 36 462.425781 35.839844 462.726562 35.613281 C 463.027344 35.390625 463.269531 35.113281 463.460938 34.792969 C 463.652344 34.46875 463.773438 34.121094 463.824219 33.75 C 463.878906 33.382812 463.855469 33.015625 463.761719 32.652344 C 463.667969 32.289062 463.507812 31.957031 463.285156 31.660156 C 463.058594 31.359375 462.785156 31.113281 462.460938 30.925781 C 462.140625 30.734375 461.792969 30.613281 461.421875 30.5625 C 461.050781 30.511719 460.683594 30.53125 460.324219 30.625 C 459.960938 30.71875 459.628906 30.878906 459.332031 31.101562 C 459.03125 31.328125 458.789062 31.601562 458.597656 31.921875 C 458.40625 32.242188 458.285156 32.589844 458.234375 32.960938 Z M 458.234375 32.960938 " fill-opacity="1" fill-rule="nonzero"/><path fill="#3c4851" d="M 455.109375 69.398438 C 455.261719 69.417969 455.402344 69.390625 455.535156 69.3125 C 455.667969 69.234375 455.761719 69.125 455.816406 68.980469 C 459.65625 57.816406 461.773438 46.335938 462.167969 34.539062 C 462.148438 34.375 462.074219 34.238281 461.953125 34.128906 C 461.828125 34.019531 461.683594 33.964844 461.519531 33.964844 C 461.355469 33.964844 461.210938 34.019531 461.085938 34.128906 C 460.964844 34.238281 460.890625 34.375 460.871094 34.539062 C 460.484375 46.1875 458.394531 57.523438 454.589844 68.546875 C 454.527344 68.714844 454.53125 68.882812 454.609375 69.046875 C 454.683594 69.210938 454.804688 69.324219 454.972656 69.386719 Z M 455.109375 69.398438 " fill-opacity="1" fill-rule="nonzero"/><path fill="#6d4881" d="M 453.261719 40.144531 C 453.207031 40.515625 453.230469 40.878906 453.320312 41.242188 C 453.414062 41.605469 453.574219 41.9375 453.800781 42.234375 C 454.023438 42.535156 454.296875 42.78125 454.621094 42.96875 C 454.941406 43.160156 455.289062 43.28125 455.660156 43.335938 C 456.027344 43.386719 456.394531 43.367188 456.757812 43.277344 C 457.121094 43.183594 457.453125 43.023438 457.75 42.800781 C 458.050781 42.574219 458.296875 42.300781 458.488281 41.980469 C 458.675781 41.65625 458.800781 41.3125 458.851562 40.941406 C 458.90625 40.570312 458.886719 40.203125 458.792969 39.839844 C 458.699219 39.476562 458.542969 39.148438 458.316406 38.847656 C 458.09375 38.546875 457.820312 38.300781 457.496094 38.113281 C 457.175781 37.921875 456.828125 37.796875 456.457031 37.746094 C 456.085938 37.695312 455.722656 37.714844 455.359375 37.808594 C 454.996094 37.902344 454.664062 38.058594 454.367188 38.285156 C 454.066406 38.507812 453.820312 38.78125 453.628906 39.105469 C 453.4375 39.425781 453.316406 39.773438 453.261719 40.144531 Z M 453.261719 40.144531 " fill-opacity="1" fill-rule="nonzero"/><path fill="#6d4881" d="M 464.316406 42.59375 C 464.265625 42.964844 464.285156 43.332031 464.378906 43.691406 C 464.472656 44.054688 464.628906 44.386719 464.855469 44.6875 C 465.078125 44.984375 465.351562 45.230469 465.675781 45.421875 C 465.996094 45.609375 466.34375 45.734375 466.714844 45.785156 C 467.085938 45.839844 467.453125 45.816406 467.8125 45.726562 C 468.175781 45.632812 468.507812 45.472656 468.808594 45.25 C 469.105469 45.023438 469.351562 44.75 469.542969 44.429688 C 469.734375 44.105469 469.855469 43.761719 469.90625 43.390625 C 469.960938 43.019531 469.941406 42.652344 469.847656 42.289062 C 469.753906 41.929688 469.597656 41.597656 469.371094 41.296875 C 469.148438 40.996094 468.875 40.753906 468.554688 40.5625 C 468.230469 40.371094 467.886719 40.25 467.515625 40.195312 C 467.144531 40.140625 466.777344 40.160156 466.414062 40.253906 C 466.050781 40.347656 465.71875 40.507812 465.417969 40.730469 C 465.117188 40.957031 464.875 41.230469 464.683594 41.550781 C 464.492188 41.875 464.371094 42.222656 464.316406 42.59375 Z M 464.316406 42.59375 " fill-opacity="1" fill-rule="nonzero"/><path fill="#3c4851" d="M 460.300781 48.085938 L 460.488281 48.085938 C 460.664062 48.054688 460.808594 47.96875 460.914062 47.824219 C 461.019531 47.679688 461.0625 47.515625 461.035156 47.335938 C 461.035156 47.171875 460.394531 43.132812 457.921875 40.910156 C 457.785156 40.8125 457.632812 40.773438 457.46875 40.792969 C 457.300781 40.808594 457.160156 40.882812 457.050781 41.007812 C 456.9375 41.136719 456.882812 41.28125 456.886719 41.449219 C 456.886719 41.617188 456.945312 41.765625 457.0625 41.886719 C 459.1875 43.785156 459.761719 47.492188 459.761719 47.535156 C 459.8125 47.84375 459.992188 48.027344 460.300781 48.085938 Z M 460.300781 48.085938 " fill-opacity="1" fill-rule="nonzero"/><path fill="#3c4851" d="M 458.929688 55.859375 C 459.097656 55.886719 459.253906 55.851562 459.398438 55.753906 C 459.539062 55.65625 459.625 55.519531 459.65625 55.351562 C 460.546875 51.199219 465.324219 45.15625 467.121094 44.171875 C 467.277344 44.085938 467.382812 43.957031 467.433594 43.785156 C 467.484375 43.613281 467.46875 43.445312 467.378906 43.289062 C 467.292969 43.132812 467.160156 43.03125 466.992188 42.980469 C 466.820312 42.929688 466.65625 42.949219 466.496094 43.027344 C 464.421875 44.160156 459.375 50.460938 458.390625 55.082031 C 458.347656 55.257812 458.375 55.421875 458.472656 55.570312 C 458.574219 55.722656 458.710938 55.816406 458.886719 55.851562 Z M 458.929688 55.859375 " fill-opacity="1" fill-rule="nonzero"/><path fill="#bd96d5" d="M 59.332031 56.867188 L 59.332031 120.523438 C 59.332031 127.425781 65.09375 132.554688 71.1875 131.058594 C 111.613281 121.199219 320.632812 93.253906 451.484375 130.511719 C 457.640625 132.265625 463.632812 127.117188 463.652344 120.128906 L 463.859375 56.804688 C 463.859375 51.851562 460.839844 47.460938 456.5 46.300781 C 422.96875 36.957031 261.636719 -0.0429688 66.414062 46.507812 C 62.148438 47.492188 59.332031 52.007812 59.332031 56.867188 Z M 59.332031 56.867188 " fill-opacity="1" fill-rule="nonzero"/><path fill="#3c4851" d="M 27.960938 68.617188 C 27.710938 68.621094 27.472656 68.574219 27.242188 68.480469 C 27.007812 68.382812 26.804688 68.25 26.628906 68.074219 C 26.449219 67.898438 26.3125 67.695312 26.21875 67.464844 C 26.121094 67.234375 26.074219 66.992188 26.074219 66.742188 C 26.070312 66.492188 26.121094 66.253906 26.214844 66.023438 C 26.308594 65.792969 26.445312 65.585938 26.621094 65.410156 C 26.800781 65.234375 27.003906 65.097656 27.234375 65.003906 C 27.464844 64.90625 27.707031 64.859375 27.953125 64.859375 C 28.203125 64.859375 28.445312 64.910156 28.675781 65.003906 C 28.90625 65.101562 29.109375 65.238281 29.285156 65.414062 C 29.460938 65.59375 29.597656 65.796875 29.691406 66.027344 C 29.785156 66.257812 29.832031 66.5 29.832031 66.75 C 29.828125 66.996094 29.78125 67.234375 29.683594 67.464844 C 29.589844 67.691406 29.457031 67.894531 29.28125 68.066406 C 29.105469 68.242188 28.902344 68.378906 28.675781 68.472656 C 28.445312 68.570312 28.210938 68.617188 27.960938 68.617188 Z M 27.960938 65.773438 C 27.691406 65.773438 27.460938 65.871094 27.273438 66.058594 C 27.082031 66.25 26.984375 66.480469 26.984375 66.75 C 26.984375 67.019531 27.082031 67.25 27.273438 67.441406 C 27.460938 67.628906 27.691406 67.726562 27.960938 67.726562 C 28.230469 67.726562 28.460938 67.628906 28.652344 67.441406 C 28.84375 67.25 28.9375 67.019531 28.9375 66.75 C 28.925781 66.488281 28.828125 66.265625 28.636719 66.085938 C 28.449219 65.90625 28.222656 65.816406 27.960938 65.816406 Z M 27.960938 65.773438 " fill-opacity="1" fill-rule="nonzero"/><path fill="#3c4851" d="M 23.46875 50.691406 C 23.21875 50.691406 22.976562 50.644531 22.746094 50.546875 C 22.515625 50.453125 22.3125 50.316406 22.136719 50.140625 C 21.960938 49.960938 21.824219 49.757812 21.730469 49.527344 C 21.636719 49.296875 21.585938 49.058594 21.589844 48.808594 C 21.589844 48.558594 21.636719 48.320312 21.734375 48.089844 C 21.828125 47.859375 21.964844 47.65625 22.140625 47.480469 C 22.320312 47.304688 22.523438 47.167969 22.753906 47.074219 C 22.984375 46.980469 23.222656 46.929688 23.472656 46.933594 C 23.722656 46.933594 23.964844 46.980469 24.191406 47.078125 C 24.421875 47.175781 24.625 47.3125 24.800781 47.488281 C 24.976562 47.667969 25.113281 47.871094 25.207031 48.101562 C 25.300781 48.332031 25.347656 48.574219 25.347656 48.820312 C 25.34375 49.070312 25.296875 49.308594 25.199219 49.539062 C 25.105469 49.765625 24.96875 49.96875 24.792969 50.144531 C 24.617188 50.320312 24.414062 50.453125 24.183594 50.546875 C 23.953125 50.644531 23.714844 50.691406 23.46875 50.691406 Z M 23.46875 47.847656 C 23.199219 47.847656 22.96875 47.941406 22.777344 48.132812 C 22.585938 48.324219 22.492188 48.550781 22.492188 48.820312 C 22.492188 49.089844 22.585938 49.320312 22.777344 49.511719 C 22.96875 49.703125 23.199219 49.796875 23.46875 49.796875 C 23.738281 49.796875 23.964844 49.703125 24.15625 49.511719 C 24.347656 49.320312 24.441406 49.089844 24.441406 48.820312 C 24.441406 48.554688 24.34375 48.328125 24.152344 48.136719 C 23.964844 47.949219 23.734375 47.855469 23.46875 47.855469 Z M 23.46875 47.847656 " fill-opacity="1" fill-rule="nonzero"/><path fill="#3c4851" d="M 496.851562 65.898438 C 496.601562 65.898438 496.363281 65.851562 496.136719 65.757812 C 495.90625 65.660156 495.703125 65.527344 495.53125 65.351562 C 495.355469 65.175781 495.21875 64.972656 495.125 64.746094 C 495.03125 64.515625 494.984375 64.277344 494.984375 64.03125 C 494.984375 63.78125 495.03125 63.542969 495.125 63.316406 C 495.21875 63.085938 495.355469 62.882812 495.53125 62.707031 C 495.703125 62.535156 495.90625 62.398438 496.136719 62.304688 C 496.363281 62.207031 496.601562 62.160156 496.851562 62.160156 C 497.097656 62.160156 497.335938 62.207031 497.566406 62.304688 C 497.796875 62.398438 497.996094 62.535156 498.171875 62.707031 C 498.347656 62.882812 498.484375 63.085938 498.578125 63.316406 C 498.671875 63.542969 498.71875 63.78125 498.71875 64.03125 C 498.71875 64.277344 498.671875 64.515625 498.578125 64.746094 C 498.484375 64.972656 498.347656 65.175781 498.171875 65.351562 C 497.996094 65.527344 497.796875 65.660156 497.566406 65.757812 C 497.335938 65.851562 497.097656 65.898438 496.851562 65.898438 Z M 496.851562 63.054688 C 496.582031 63.054688 496.351562 63.148438 496.160156 63.339844 C 495.96875 63.53125 495.875 63.761719 495.875 64.03125 C 495.875 64.300781 495.96875 64.53125 496.160156 64.71875 C 496.351562 64.910156 496.582031 65.003906 496.851562 65.003906 C 497.121094 65.003906 497.351562 64.910156 497.542969 64.71875 C 497.730469 64.53125 497.828125 64.300781 497.828125 64.03125 C 497.828125 63.761719 497.730469 63.53125 497.542969 63.339844 C 497.351562 63.148438 497.121094 63.054688 496.851562 63.054688 Z M 496.851562 63.054688 " fill-opacity="1" fill-rule="nonzero"/><path fill="#3c4851" d="M 515.121094 75.78125 C 514.875 75.78125 514.636719 75.734375 514.40625 75.640625 C 514.175781 75.542969 513.976562 75.410156 513.800781 75.234375 C 513.625 75.058594 513.488281 74.855469 513.394531 74.628906 C 513.300781 74.398438 513.253906 74.160156 513.253906 73.914062 C 513.253906 73.664062 513.300781 73.425781 513.394531 73.199219 C 513.488281 72.96875 513.625 72.765625 513.800781 72.589844 C 513.976562 72.417969 514.175781 72.28125 514.40625 72.1875 C 514.636719 72.089844 514.875 72.042969 515.121094 72.042969 C 515.371094 72.042969 515.609375 72.089844 515.835938 72.1875 C 516.066406 72.28125 516.269531 72.417969 516.441406 72.589844 C 516.617188 72.765625 516.753906 72.96875 516.847656 73.199219 C 516.941406 73.425781 516.992188 73.664062 516.992188 73.914062 C 516.988281 74.160156 516.941406 74.398438 516.84375 74.625 C 516.75 74.855469 516.613281 75.054688 516.441406 75.230469 C 516.265625 75.40625 516.0625 75.542969 515.835938 75.636719 C 515.605469 75.730469 515.371094 75.78125 515.121094 75.78125 Z M 515.121094 72.9375 C 514.851562 72.933594 514.621094 73.027344 514.425781 73.214844 C 514.234375 73.40625 514.136719 73.636719 514.136719 73.90625 C 514.132812 74.175781 514.226562 74.40625 514.417969 74.597656 C 514.609375 74.792969 514.835938 74.886719 515.109375 74.886719 C 515.378906 74.890625 515.609375 74.792969 515.800781 74.605469 C 515.992188 74.414062 516.085938 74.183594 516.085938 73.914062 C 516.085938 73.644531 515.992188 73.417969 515.804688 73.226562 C 515.617188 73.035156 515.390625 72.941406 515.121094 72.9375 Z M 515.121094 72.9375 " fill-opacity="1" fill-rule="nonzero"/><path fill="#3c4851" d="M 501.347656 47.929688 C 501.097656 47.929688 500.859375 47.882812 500.632812 47.785156 C 500.402344 47.691406 500.199219 47.558594 500.023438 47.382812 C 499.851562 47.207031 499.714844 47.003906 499.621094 46.777344 C 499.523438 46.546875 499.476562 46.308594 499.476562 46.058594 C 499.476562 45.8125 499.523438 45.574219 499.621094 45.34375 C 499.714844 45.117188 499.851562 44.914062 500.023438 44.738281 C 500.199219 44.5625 500.402344 44.429688 500.632812 44.335938 C 500.859375 44.238281 501.097656 44.191406 501.347656 44.191406 C 501.59375 44.191406 501.832031 44.238281 502.0625 44.335938 C 502.289062 44.429688 502.492188 44.5625 502.667969 44.738281 C 502.84375 44.914062 502.976562 45.117188 503.074219 45.34375 C 503.167969 45.574219 503.214844 45.8125 503.214844 46.058594 C 503.214844 46.308594 503.164062 46.546875 503.070312 46.773438 C 502.972656 47.003906 502.839844 47.203125 502.664062 47.378906 C 502.488281 47.554688 502.289062 47.6875 502.058594 47.785156 C 501.832031 47.878906 501.59375 47.929688 501.347656 47.929688 Z M 501.347656 45.085938 C 501.074219 45.082031 500.84375 45.175781 500.652344 45.363281 C 500.460938 45.554688 500.363281 45.785156 500.359375 46.054688 C 500.359375 46.324219 500.453125 46.554688 500.640625 46.746094 C 500.832031 46.9375 501.0625 47.035156 501.332031 47.035156 C 501.601562 47.039062 501.832031 46.941406 502.023438 46.75 C 502.214844 46.5625 502.3125 46.332031 502.3125 46.058594 C 502.3125 45.792969 502.21875 45.5625 502.03125 45.375 C 501.839844 45.183594 501.613281 45.085938 501.347656 45.085938 Z M 501.347656 45.085938 " fill-opacity="1" fill-rule="nonzero"/><g fill="#ffffff" fill-opacity="1"><g transform="translate(99.330225, 99.573648)"><g><path d="M 22.75 -3.71875 C 22.226562 -3.625 21.828125 -3.738281 21.546875 -4.0625 L 4.875 -28.953125 L 4.71875 -28.9375 L 8.515625 -7.890625 C 8.710938 -6.929688 8.910156 -6.207031 9.109375 -5.71875 C 9.304688 -5.226562 9.675781 -4.835938 10.21875 -4.546875 C 10.757812 -4.265625 11.539062 -4.210938 12.5625 -4.390625 L 12.890625 -4.453125 C 13.234375 -4.515625 13.492188 -4.492188 13.671875 -4.390625 C 13.859375 -4.296875 14.019531 -4.003906 14.15625 -3.515625 C 14.207031 -3.191406 14.171875 -2.90625 14.046875 -2.65625 C 13.929688 -2.40625 13.71875 -2.25 13.40625 -2.1875 L 12.046875 -2 C 10.421875 -1.789062 9.253906 -1.625 8.546875 -1.5 C 7.335938 -1.289062 5.597656 -0.929688 3.328125 -0.421875 C 3.003906 -0.367188 2.742188 -0.4375 2.546875 -0.625 C 2.347656 -0.820312 2.222656 -1.082031 2.171875 -1.40625 C 2.109375 -1.945312 2.15625 -2.285156 2.3125 -2.421875 C 2.46875 -2.566406 2.789062 -2.679688 3.28125 -2.765625 C 4.3125 -2.941406 5.035156 -3.257812 5.453125 -3.71875 C 5.867188 -4.175781 6.082031 -4.664062 6.09375 -5.1875 C 6.101562 -5.71875 6.039062 -6.46875 5.90625 -7.4375 L 2.328125 -28.515625 C 2.128906 -29.617188 1.859375 -30.421875 1.515625 -30.921875 C 1.179688 -31.421875 0.753906 -31.742188 0.234375 -31.890625 C -0.285156 -32.035156 -1.019531 -32.117188 -1.96875 -32.140625 C -2.125 -32.148438 -2.34375 -32.15625 -2.625 -32.15625 C -2.914062 -32.15625 -3.117188 -32.222656 -3.234375 -32.359375 C -3.359375 -32.503906 -3.453125 -32.757812 -3.515625 -33.125 C -3.585938 -33.539062 -3.519531 -33.84375 -3.3125 -34.03125 C -3.113281 -34.21875 -2.769531 -34.351562 -2.28125 -34.4375 C -0.195312 -34.800781 1.535156 -34.96875 2.921875 -34.9375 C 4.316406 -34.914062 5.59375 -34.582031 6.75 -33.9375 C 7.90625 -33.300781 8.957031 -32.242188 9.90625 -30.765625 L 22.640625 -11.890625 L 22.78125 -11.921875 L 28.703125 -39.546875 L 31.734375 -40.078125 C 33.679688 -40.410156 35.773438 -40.828125 38.015625 -41.328125 C 38.335938 -41.390625 38.597656 -41.320312 38.796875 -41.125 C 38.992188 -40.925781 39.117188 -40.664062 39.171875 -40.34375 C 39.234375 -39.8125 39.175781 -39.472656 39 -39.328125 C 38.832031 -39.179688 38.515625 -39.066406 38.046875 -38.984375 C 37.023438 -38.804688 36.296875 -38.488281 35.859375 -38.03125 C 35.429688 -37.570312 35.203125 -37.054688 35.171875 -36.484375 C 35.148438 -35.921875 35.203125 -35.195312 35.328125 -34.3125 L 39.015625 -13.25 C 39.203125 -12.363281 39.40625 -11.65625 39.625 -11.125 C 39.851562 -10.601562 40.242188 -10.203125 40.796875 -9.921875 C 41.359375 -9.640625 42.148438 -9.585938 43.171875 -9.765625 L 43.5 -9.828125 C 43.820312 -9.878906 44.070312 -9.859375 44.25 -9.765625 C 44.425781 -9.671875 44.578125 -9.375 44.703125 -8.875 C 44.753906 -8.550781 44.722656 -8.265625 44.609375 -8.015625 C 44.492188 -7.765625 44.273438 -7.609375 43.953125 -7.546875 C 41.671875 -7.253906 39.535156 -6.9375 37.546875 -6.59375 C 35.503906 -6.226562 33.34375 -5.796875 31.0625 -5.296875 C 30.738281 -5.234375 30.476562 -5.300781 30.28125 -5.5 C 30.082031 -5.695312 29.957031 -5.957031 29.90625 -6.28125 C 29.84375 -6.820312 29.890625 -7.160156 30.046875 -7.296875 C 30.203125 -7.429688 30.53125 -7.546875 31.03125 -7.640625 C 32.0625 -7.816406 32.789062 -8.132812 33.21875 -8.59375 C 33.644531 -9.050781 33.867188 -9.5625 33.890625 -10.125 C 33.921875 -10.695312 33.878906 -11.429688 33.765625 -12.328125 L 30.078125 -33.390625 L 29.90625 -33.359375 L 23.71875 -4.4375 C 23.632812 -4.0625 23.3125 -3.820312 22.75 -3.71875 Z M 22.75 -3.71875 "/></g></g></g><g fill="#ffffff" fill-opacity="1"><g transform="translate(145.812758, 91.692022)"><g><path d="M 3.21875 -0.265625 C 2.894531 -0.222656 2.640625 -0.304688 2.453125 -0.515625 C 2.265625 -0.722656 2.148438 -0.984375 2.109375 -1.296875 C 2.066406 -1.847656 2.132812 -2.191406 2.3125 -2.328125 C 2.5 -2.460938 2.828125 -2.5625 3.296875 -2.625 C 4.328125 -2.757812 5.0625 -3.046875 5.5 -3.484375 C 5.945312 -3.921875 6.207031 -4.414062 6.28125 -4.96875 C 6.351562 -5.519531 6.347656 -6.257812 6.265625 -7.1875 L 3.421875 -28.390625 C 3.265625 -29.304688 3.078125 -30.023438 2.859375 -30.546875 C 2.648438 -31.066406 2.269531 -31.476562 1.71875 -31.78125 C 1.175781 -32.082031 0.390625 -32.164062 -0.640625 -32.03125 L -0.96875 -31.984375 C -1.289062 -31.941406 -1.535156 -31.972656 -1.703125 -32.078125 C -1.878906 -32.179688 -2.019531 -32.476562 -2.125 -32.96875 C -2.164062 -33.289062 -2.117188 -33.578125 -1.984375 -33.828125 C -1.859375 -34.078125 -1.632812 -34.222656 -1.3125 -34.265625 C 1.007812 -34.472656 3.132812 -34.707031 5.0625 -34.96875 C 7.195312 -35.25 9.414062 -35.597656 11.71875 -36.015625 C 12.03125 -36.054688 12.28125 -35.972656 12.46875 -35.765625 C 12.65625 -35.554688 12.769531 -35.289062 12.8125 -34.96875 C 12.84375 -34.4375 12.769531 -34.101562 12.59375 -33.96875 C 12.425781 -33.832031 12.085938 -33.726562 11.578125 -33.65625 C 10.546875 -33.519531 9.804688 -33.234375 9.359375 -32.796875 C 8.921875 -32.359375 8.675781 -31.851562 8.625 -31.28125 C 8.570312 -30.71875 8.582031 -29.984375 8.65625 -29.078125 L 11.5 -7.875 C 11.65625 -7 11.832031 -6.289062 12.03125 -5.75 C 12.226562 -5.21875 12.597656 -4.800781 13.140625 -4.5 C 13.691406 -4.195312 14.484375 -4.113281 15.515625 -4.25 L 15.84375 -4.296875 C 16.195312 -4.335938 16.457031 -4.304688 16.625 -4.203125 C 16.800781 -4.109375 16.941406 -3.804688 17.046875 -3.296875 C 17.085938 -2.984375 17.039062 -2.703125 16.90625 -2.453125 C 16.78125 -2.203125 16.5625 -2.054688 16.25 -2.015625 C 13.957031 -1.816406 11.742188 -1.570312 9.609375 -1.28125 C 7.648438 -1.019531 5.519531 -0.679688 3.21875 -0.265625 Z M 3.21875 -0.265625 "/></g></g></g><g fill="#ffffff" fill-opacity="1"><g transform="translate(164.710803, 89.08475)"><g><path d="M 14.296875 -0.390625 C 10.554688 -0.00390625 7.625 -0.359375 5.5 -1.453125 C 3.382812 -2.554688 2.195312 -4.375 1.9375 -6.90625 C 1.800781 -8.195312 2.125 -9.304688 2.90625 -10.234375 C 3.695312 -11.171875 4.785156 -11.710938 6.171875 -11.859375 C 7.015625 -11.898438 7.664062 -11.753906 8.125 -11.421875 C 8.59375 -11.097656 8.84375 -10.773438 8.875 -10.453125 C 8.882812 -10.410156 8.71875 -10.265625 8.375 -10.015625 C 8.039062 -9.765625 7.753906 -9.410156 7.515625 -8.953125 C 7.273438 -8.492188 7.191406 -7.894531 7.265625 -7.15625 C 7.441406 -5.476562 8.085938 -4.234375 9.203125 -3.421875 C 10.316406 -2.617188 11.941406 -2.328125 14.078125 -2.546875 C 15.546875 -2.703125 16.800781 -3.117188 17.84375 -3.796875 C 18.894531 -4.484375 19.664062 -5.328125 20.15625 -6.328125 C 20.65625 -7.335938 20.847656 -8.363281 20.734375 -9.40625 C 20.609375 -10.6875 20.128906 -11.753906 19.296875 -12.609375 C 18.460938 -13.460938 17.476562 -14.144531 16.34375 -14.65625 C 15.207031 -15.175781 13.671875 -15.75 11.734375 -16.375 C 9.492188 -17.113281 7.671875 -17.804688 6.265625 -18.453125 C 4.859375 -19.109375 3.625 -20.039062 2.5625 -21.25 C 1.5 -22.457031 0.867188 -24.023438 0.671875 -25.953125 C 0.347656 -29.066406 1.171875 -31.5 3.140625 -33.25 C 5.109375 -35 7.820312 -36.054688 11.28125 -36.421875 C 14 -36.703125 16.425781 -36.375 18.5625 -35.4375 C 20.695312 -34.5 21.875 -32.925781 22.09375 -30.71875 C 22.226562 -29.4375 21.898438 -28.328125 21.109375 -27.390625 C 20.328125 -26.460938 19.238281 -25.929688 17.84375 -25.796875 C 17.019531 -25.734375 16.375 -25.863281 15.90625 -26.1875 C 15.4375 -26.519531 15.1875 -26.847656 15.15625 -27.171875 C 15.15625 -27.210938 15.378906 -27.363281 15.828125 -27.625 C 16.285156 -27.882812 16.679688 -28.25 17.015625 -28.71875 C 17.359375 -29.195312 17.488281 -29.804688 17.40625 -30.546875 C 17.269531 -31.878906 16.648438 -32.867188 15.546875 -33.515625 C 14.453125 -34.160156 13.125 -34.398438 11.5625 -34.234375 C 9.375 -34.003906 7.769531 -33.320312 6.75 -32.1875 C 5.738281 -31.050781 5.3125 -29.734375 5.46875 -28.234375 C 5.59375 -26.984375 6.035156 -25.972656 6.796875 -25.203125 C 7.566406 -24.441406 8.75 -23.722656 10.34375 -23.046875 C 11.613281 -22.535156 13 -22.03125 14.5 -21.53125 C 16.894531 -20.738281 18.804688 -19.984375 20.234375 -19.265625 C 21.660156 -18.546875 22.898438 -17.535156 23.953125 -16.234375 C 25.015625 -14.929688 25.648438 -13.242188 25.859375 -11.171875 C 26.046875 -9.390625 25.648438 -7.71875 24.671875 -6.15625 C 23.703125 -4.601562 22.300781 -3.3125 20.46875 -2.28125 C 18.644531 -1.257812 16.585938 -0.628906 14.296875 -0.390625 Z M 14.296875 -0.390625 "/></g></g></g><g fill="#ffffff" fill-opacity="1"><g transform="translate(193.470303, 86.208545)"><g/></g></g><g fill="#ffffff" fill-opacity="1"><g transform="translate(204.925734, 85.138035)"><g><path d="M 1.34375 0.09375 C 1.019531 0.101562 0.769531 0 0.59375 -0.21875 C 0.425781 -0.4375 0.335938 -0.707031 0.328125 -1.03125 C 0.335938 -1.539062 0.410156 -1.863281 0.546875 -2 C 0.679688 -2.132812 0.929688 -2.207031 1.296875 -2.21875 C 2.765625 -2.289062 3.851562 -2.578125 4.5625 -3.078125 C 5.28125 -3.585938 6.117188 -4.617188 7.078125 -6.171875 L 14.328125 -17.640625 L 6.90625 -28.109375 C 5.976562 -29.398438 5.085938 -30.328125 4.234375 -30.890625 C 3.390625 -31.460938 2.367188 -31.84375 1.171875 -32.03125 C 1.015625 -32.0625 0.789062 -32.09375 0.5 -32.125 C 0.21875 -32.164062 0.03125 -32.265625 -0.0625 -32.421875 C -0.164062 -32.578125 -0.222656 -32.832031 -0.234375 -33.1875 C -0.265625 -33.695312 -0.148438 -34.007812 0.109375 -34.125 C 0.367188 -34.25 0.695312 -34.320312 1.09375 -34.34375 C 1.488281 -34.363281 1.742188 -34.375 1.859375 -34.375 C 4.359375 -34.5 6.375 -34.1875 7.90625 -33.4375 C 9.4375 -32.6875 10.972656 -31.3125 12.515625 -29.3125 L 17.28125 -22.3125 L 22.21875 -30.328125 C 22.613281 -31.066406 22.800781 -31.597656 22.78125 -31.921875 C 22.757812 -32.359375 22.492188 -32.628906 21.984375 -32.734375 C 21.484375 -32.847656 20.726562 -32.882812 19.71875 -32.84375 L 19.390625 -32.828125 C 19.035156 -32.804688 18.78125 -32.851562 18.625 -32.96875 C 18.476562 -33.09375 18.375 -33.40625 18.3125 -33.90625 C 18.300781 -34.226562 18.367188 -34.507812 18.515625 -34.75 C 18.671875 -34.988281 18.890625 -35.113281 19.171875 -35.125 C 21.472656 -35.132812 23.429688 -35.179688 25.046875 -35.265625 C 26.378906 -35.328125 28.1875 -35.46875 30.46875 -35.6875 C 30.789062 -35.707031 31.035156 -35.601562 31.203125 -35.375 C 31.378906 -35.15625 31.472656 -34.882812 31.484375 -34.5625 C 31.484375 -34.050781 31.410156 -33.726562 31.265625 -33.59375 C 31.128906 -33.46875 30.882812 -33.394531 30.53125 -33.375 C 29.070312 -33.300781 27.984375 -33.015625 27.265625 -32.515625 C 26.546875 -32.023438 25.707031 -31 24.75 -29.4375 L 18.890625 -20.1875 L 28.921875 -7.328125 C 29.773438 -6.179688 30.570312 -5.300781 31.3125 -4.6875 C 32.050781 -4.070312 32.941406 -3.789062 33.984375 -3.84375 L 34.3125 -3.859375 C 34.675781 -3.878906 34.929688 -3.828125 35.078125 -3.703125 C 35.222656 -3.585938 35.332031 -3.28125 35.40625 -2.78125 C 35.414062 -2.457031 35.34375 -2.175781 35.1875 -1.9375 C 35.039062 -1.695312 34.820312 -1.570312 34.53125 -1.5625 C 32.238281 -1.550781 30.085938 -1.492188 28.078125 -1.390625 C 26.035156 -1.285156 23.847656 -1.125 21.515625 -0.90625 C 21.191406 -0.894531 20.941406 -1 20.765625 -1.21875 C 20.597656 -1.4375 20.507812 -1.707031 20.5 -2.03125 C 20.5 -2.570312 20.59375 -2.898438 20.78125 -3.015625 C 20.976562 -3.140625 21.3125 -3.21875 21.78125 -3.25 C 22.5 -3.28125 23.039062 -3.429688 23.40625 -3.703125 C 23.769531 -3.972656 23.941406 -4.328125 23.921875 -4.765625 C 23.898438 -5.148438 23.71875 -5.550781 23.375 -5.96875 L 16.015625 -15.46875 L 9.609375 -5.28125 C 9.203125 -4.6875 9.007812 -4.15625 9.03125 -3.6875 C 9.050781 -3.25 9.316406 -2.972656 9.828125 -2.859375 C 10.335938 -2.742188 11.09375 -2.710938 12.09375 -2.765625 L 12.421875 -2.78125 C 12.785156 -2.800781 13.039062 -2.75 13.1875 -2.625 C 13.332031 -2.507812 13.441406 -2.195312 13.515625 -1.6875 C 13.523438 -1.363281 13.453125 -1.082031 13.296875 -0.84375 C 13.148438 -0.613281 12.929688 -0.488281 12.640625 -0.46875 C 10.335938 -0.457031 8.378906 -0.414062 6.765625 -0.34375 C 5.484375 -0.269531 3.675781 -0.125 1.34375 0.09375 Z M 1.34375 0.09375 "/></g></g></g><g fill="#ffffff" fill-opacity="1"><g transform="translate(239.297561, 83.418599)"><g><path d="M 16.375 0.421875 C 15.269531 -2.515625 13.523438 -7.1875 11.140625 -13.59375 C 8.765625 -20.007812 7.03125 -24.648438 5.9375 -27.515625 C 5.3125 -29.046875 4.710938 -30.113281 4.140625 -30.71875 C 3.566406 -31.332031 2.71875 -31.742188 1.59375 -31.953125 C 1.445312 -31.992188 1.226562 -32.035156 0.9375 -32.078125 C 0.65625 -32.128906 0.46875 -32.234375 0.375 -32.390625 C 0.289062 -32.554688 0.25 -32.816406 0.25 -33.171875 C 0.25 -33.609375 0.363281 -33.898438 0.59375 -34.046875 C 0.820312 -34.191406 1.1875 -34.265625 1.6875 -34.265625 C 4.382812 -34.285156 6.429688 -33.890625 7.828125 -33.078125 C 9.234375 -32.265625 10.363281 -30.796875 11.21875 -28.671875 L 19.1875 -7.734375 L 19.34375 -7.734375 L 26.625 -29.375 C 26.820312 -29.988281 26.921875 -30.457031 26.921875 -30.78125 C 26.921875 -31.28125 26.710938 -31.609375 26.296875 -31.765625 C 25.878906 -31.929688 25.1875 -32.007812 24.21875 -32 L 23.890625 -32 C 23.535156 -32 23.285156 -32.0625 23.140625 -32.1875 C 22.992188 -32.3125 22.90625 -32.628906 22.875 -33.140625 C 22.875 -33.460938 22.953125 -33.738281 23.109375 -33.96875 C 23.265625 -34.195312 23.484375 -34.3125 23.765625 -34.3125 C 26.097656 -34.226562 28.054688 -34.191406 29.640625 -34.203125 C 30.328125 -34.203125 31.640625 -34.242188 33.578125 -34.328125 L 34.703125 -34.390625 C 35.023438 -34.390625 35.269531 -34.273438 35.4375 -34.046875 C 35.601562 -33.816406 35.6875 -33.539062 35.6875 -33.21875 C 35.65625 -32.707031 35.566406 -32.390625 35.421875 -32.265625 C 35.273438 -32.140625 35.023438 -32.078125 34.671875 -32.078125 C 33.117188 -32.066406 31.941406 -31.804688 31.140625 -31.296875 C 30.335938 -30.796875 29.65625 -29.820312 29.09375 -28.375 C 28.039062 -25.425781 26.34375 -20.644531 24 -14.03125 C 21.65625 -7.425781 19.957031 -2.617188 18.90625 0.390625 Z M 16.375 0.421875 "/></g></g></g><g fill="#ffffff" fill-opacity="1"><g transform="translate(273.687008, 83.328232)"><g/></g></g><g fill="#ffffff" fill-opacity="1"><g transform="translate(285.192137, 83.400062)"><g><path d="M 0.328125 0.171875 C 0.00390625 0.160156 -0.226562 0.0351562 -0.375 -0.203125 C -0.53125 -0.441406 -0.601562 -0.722656 -0.59375 -1.046875 C -0.53125 -1.585938 -0.40625 -1.90625 -0.21875 -2 C -0.03125 -2.101562 0.1875 -2.148438 0.4375 -2.140625 C 0.6875 -2.128906 0.847656 -2.117188 0.921875 -2.109375 C 1.992188 -2.054688 2.796875 -2.296875 3.328125 -2.828125 C 3.859375 -3.359375 4.289062 -3.96875 4.625 -4.65625 C 4.96875 -5.34375 5.203125 -5.800781 5.328125 -6.03125 L 15.84375 -27.84375 C 16.082031 -28.375 16.207031 -28.800781 16.21875 -29.125 C 16.25 -29.769531 16.019531 -30.242188 15.53125 -30.546875 C 15.050781 -30.859375 14.367188 -31.128906 13.484375 -31.359375 C 12.878906 -31.492188 12.507812 -31.617188 12.375 -31.734375 C 12.238281 -31.847656 12.179688 -32.15625 12.203125 -32.65625 C 12.222656 -33.082031 12.347656 -33.363281 12.578125 -33.5 C 12.816406 -33.632812 13.191406 -33.691406 13.703125 -33.671875 C 15.492188 -33.578125 16.910156 -33.367188 17.953125 -33.046875 C 19.003906 -32.722656 19.898438 -32.140625 20.640625 -31.296875 C 21.390625 -30.453125 22.066406 -29.1875 22.671875 -27.5 L 30.609375 -4.765625 C 31.078125 -3.390625 31.539062 -2.347656 32 -1.640625 C 32.46875 -0.929688 33.203125 -0.535156 34.203125 -0.453125 L 34.53125 -0.4375 C 34.894531 -0.414062 35.144531 -0.335938 35.28125 -0.203125 C 35.414062 -0.078125 35.488281 0.238281 35.5 0.75 C 35.488281 1.070312 35.394531 1.34375 35.21875 1.5625 C 35.050781 1.789062 34.804688 1.894531 34.484375 1.875 C 32.191406 1.65625 30.21875 1.503906 28.5625 1.421875 C 26.414062 1.316406 24.191406 1.257812 21.890625 1.25 C 21.566406 1.226562 21.328125 1.097656 21.171875 0.859375 C 21.023438 0.628906 20.957031 0.351562 20.96875 0.03125 C 21.03125 -0.476562 21.132812 -0.789062 21.28125 -0.90625 C 21.4375 -1.03125 21.691406 -1.082031 22.046875 -1.0625 C 23.273438 -1 24.144531 -1.070312 24.65625 -1.28125 C 25.164062 -1.488281 25.4375 -1.894531 25.46875 -2.5 C 25.488281 -2.96875 25.316406 -3.816406 24.953125 -5.046875 L 23.34375 -9.609375 L 10.046875 -10.28125 C 9.046875 -8.101562 8.472656 -6.835938 8.328125 -6.484375 C 8.179688 -6.128906 8.109375 -5.929688 8.109375 -5.890625 C 7.609375 -4.554688 7.347656 -3.691406 7.328125 -3.296875 C 7.296875 -2.691406 7.546875 -2.273438 8.078125 -2.046875 C 8.609375 -1.828125 9.628906 -1.679688 11.140625 -1.609375 L 11.453125 -1.59375 C 11.816406 -1.570312 12.066406 -1.492188 12.203125 -1.359375 C 12.335938 -1.234375 12.410156 -0.910156 12.421875 -0.390625 C 12.410156 -0.0664062 12.316406 0.203125 12.140625 0.421875 C 11.972656 0.640625 11.726562 0.738281 11.40625 0.71875 C 9.101562 0.5 7.148438 0.351562 5.546875 0.28125 C 4.398438 0.21875 2.660156 0.179688 0.328125 0.171875 Z M 11.203125 -12.546875 L 22.484375 -11.984375 L 17.75 -26.09375 L 17.59375 -26.09375 Z M 11.203125 -12.546875 "/></g></g></g><g fill="#ffffff" fill-opacity="1"><g transform="translate(319.518448, 85.043114)"><g><path d="M 3.3125 0.46875 C 2.988281 0.4375 2.753906 0.296875 2.609375 0.046875 C 2.472656 -0.191406 2.421875 -0.472656 2.453125 -0.796875 C 2.535156 -1.316406 2.671875 -1.625 2.859375 -1.71875 C 3.054688 -1.8125 3.40625 -1.832031 3.90625 -1.78125 C 4.9375 -1.6875 5.710938 -1.800781 6.234375 -2.125 C 6.753906 -2.457031 7.09375 -2.878906 7.25 -3.390625 C 7.40625 -3.898438 7.546875 -4.632812 7.671875 -5.59375 L 9.8125 -26.875 C 9.914062 -27.945312 9.875 -28.769531 9.6875 -29.34375 C 9.507812 -29.914062 9.1875 -30.347656 8.71875 -30.640625 C 8.25 -30.941406 7.554688 -31.234375 6.640625 -31.515625 C 6.035156 -31.679688 5.664062 -31.820312 5.53125 -31.9375 C 5.40625 -32.0625 5.363281 -32.367188 5.40625 -32.859375 C 5.445312 -33.285156 5.59375 -33.5625 5.84375 -33.6875 C 6.09375 -33.8125 6.46875 -33.847656 6.96875 -33.796875 C 9.1875 -33.585938 10.921875 -33.265625 12.171875 -32.828125 C 13.429688 -32.398438 14.515625 -31.742188 15.421875 -30.859375 C 16.328125 -29.984375 17.289062 -28.691406 18.3125 -26.984375 L 31.171875 -6.265625 L 31.328125 -6.25 L 32.96875 -24.671875 C 33.03125 -25.640625 33.03125 -26.382812 32.96875 -26.90625 C 32.914062 -27.4375 32.664062 -27.910156 32.21875 -28.328125 C 31.78125 -28.753906 31.039062 -29.015625 30 -29.109375 L 29.671875 -29.140625 C 29.316406 -29.171875 29.066406 -29.253906 28.921875 -29.390625 C 28.773438 -29.535156 28.707031 -29.863281 28.71875 -30.375 C 28.75 -30.695312 28.863281 -30.960938 29.0625 -31.171875 C 29.257812 -31.378906 29.5 -31.472656 29.78125 -31.453125 C 32.0625 -31.128906 33.773438 -30.910156 34.921875 -30.796875 C 35.597656 -30.734375 36.90625 -30.644531 38.84375 -30.53125 L 39.96875 -30.484375 C 40.289062 -30.453125 40.519531 -30.3125 40.65625 -30.0625 C 40.800781 -29.820312 40.859375 -29.539062 40.828125 -29.21875 C 40.742188 -28.6875 40.601562 -28.375 40.40625 -28.28125 C 40.21875 -28.1875 39.875 -28.164062 39.375 -28.21875 C 38.34375 -28.3125 37.566406 -28.191406 37.046875 -27.859375 C 36.523438 -27.535156 36.179688 -27.117188 36.015625 -26.609375 C 35.859375 -26.109375 35.71875 -25.375 35.59375 -24.40625 L 32.90625 2.609375 C 32.832031 3.066406 32.367188 3.253906 31.515625 3.171875 C 30.828125 3.097656 30.328125 2.816406 30.015625 2.328125 L 12.375 -26.625 L 12.21875 -26.640625 L 10.296875 -5.34375 C 10.234375 -4.375 10.234375 -3.625 10.296875 -3.09375 C 10.359375 -2.5625 10.613281 -2.085938 11.0625 -1.671875 C 11.507812 -1.253906 12.25 -0.992188 13.28125 -0.890625 L 13.609375 -0.859375 C 13.960938 -0.828125 14.210938 -0.738281 14.359375 -0.59375 C 14.515625 -0.457031 14.585938 -0.132812 14.578125 0.375 C 14.546875 0.695312 14.4375 0.960938 14.25 1.171875 C 14.070312 1.390625 13.820312 1.484375 13.5 1.453125 C 11.21875 1.128906 9.488281 0.910156 8.3125 0.796875 C 7.59375 0.722656 6.335938 0.640625 4.546875 0.546875 Z M 26.859375 -34.984375 C 26.097656 -35.097656 25.429688 -35.332031 24.859375 -35.6875 C 24.296875 -36.039062 23.6875 -36.539062 23.03125 -37.1875 C 22.539062 -37.664062 22.125 -38.03125 21.78125 -38.28125 C 21.4375 -38.53125 21.066406 -38.671875 20.671875 -38.703125 C 20.171875 -38.753906 19.578125 -38.625 18.890625 -38.3125 C 18.203125 -38.007812 17.492188 -37.507812 16.765625 -36.8125 C 16.453125 -36.550781 16.113281 -36.441406 15.75 -36.484375 C 15.4375 -36.515625 15.1875 -36.675781 15 -36.96875 C 14.8125 -37.257812 14.8125 -37.585938 15 -37.953125 C 15.65625 -39.253906 16.570312 -40.328125 17.75 -41.171875 C 18.9375 -42.015625 20.242188 -42.367188 21.671875 -42.234375 C 22.460938 -42.128906 23.117188 -41.90625 23.640625 -41.5625 C 24.160156 -41.21875 24.785156 -40.710938 25.515625 -40.046875 C 25.972656 -39.566406 26.367188 -39.203125 26.703125 -38.953125 C 27.035156 -38.703125 27.398438 -38.554688 27.796875 -38.515625 C 28.304688 -38.460938 28.914062 -38.59375 29.625 -38.90625 C 30.34375 -39.226562 31.0625 -39.726562 31.78125 -40.40625 C 32.09375 -40.664062 32.394531 -40.785156 32.6875 -40.765625 C 32.96875 -40.734375 33.191406 -40.613281 33.359375 -40.40625 C 33.535156 -40.207031 33.613281 -39.96875 33.59375 -39.6875 C 33.570312 -39.476562 33.5 -39.269531 33.375 -39.0625 C 32.6875 -37.832031 31.769531 -36.8125 30.625 -36 C 29.476562 -35.1875 28.222656 -34.847656 26.859375 -34.984375 Z M 26.859375 -34.984375 "/></g></g></g><g fill="#ffffff" fill-opacity="1"><g transform="translate(358.185803, 88.717029)"><g><path d="M 19.359375 3.875 C 15.972656 3.382812 13.109375 2.144531 10.765625 0.15625 C 8.429688 -1.820312 6.753906 -4.242188 5.734375 -7.109375 C 4.710938 -9.984375 4.421875 -12.945312 4.859375 -16 C 5.398438 -19.726562 6.710938 -22.859375 8.796875 -25.390625 C 10.878906 -27.921875 13.34375 -29.734375 16.1875 -30.828125 C 19.039062 -31.921875 21.816406 -32.273438 24.515625 -31.890625 C 27.929688 -31.398438 30.820312 -30.15625 33.1875 -28.15625 C 35.5625 -26.15625 37.265625 -23.726562 38.296875 -20.875 C 39.328125 -18.03125 39.625 -15.082031 39.1875 -12.03125 C 38.644531 -8.289062 37.316406 -5.148438 35.203125 -2.609375 C 33.097656 -0.078125 30.601562 1.734375 27.71875 2.828125 C 24.84375 3.921875 22.054688 4.269531 19.359375 3.875 Z M 19.640625 1.53125 C 22.066406 1.875 24.1875 1.441406 26 0.234375 C 27.820312 -0.960938 29.304688 -2.71875 30.453125 -5.03125 C 31.609375 -7.351562 32.398438 -9.992188 32.828125 -12.953125 C 33.222656 -15.691406 33.175781 -18.265625 32.6875 -20.671875 C 32.207031 -23.078125 31.25 -25.082031 29.8125 -26.6875 C 28.375 -28.300781 26.476562 -29.273438 24.125 -29.609375 C 20.570312 -30.128906 17.679688 -29.007812 15.453125 -26.25 C 13.222656 -23.5 11.78125 -19.835938 11.125 -15.265625 C 10.71875 -12.492188 10.75 -9.894531 11.21875 -7.46875 C 11.6875 -5.039062 12.617188 -3.019531 14.015625 -1.40625 C 15.421875 0.207031 17.296875 1.1875 19.640625 1.53125 Z M 19.640625 1.53125 "/></g></g></g><g fill="#ffffff" fill-opacity="1"><g transform="translate(396.615417, 94.3513)"><g><path d="M 13.8125 3.6875 C 10.125 3 7.421875 1.820312 5.703125 0.15625 C 3.984375 -1.5 3.359375 -3.578125 3.828125 -6.078125 C 4.066406 -7.359375 4.691406 -8.332031 5.703125 -9 C 6.722656 -9.664062 7.921875 -9.867188 9.296875 -9.609375 C 10.117188 -9.410156 10.703125 -9.085938 11.046875 -8.640625 C 11.390625 -8.191406 11.535156 -7.8125 11.484375 -7.5 C 11.472656 -7.457031 11.269531 -7.363281 10.875 -7.21875 C 10.476562 -7.070312 10.097656 -6.8125 9.734375 -6.4375 C 9.378906 -6.070312 9.132812 -5.519531 9 -4.78125 C 8.6875 -3.125 8.953125 -1.75 9.796875 -0.65625 C 10.640625 0.425781 12.113281 1.164062 14.21875 1.5625 C 15.675781 1.832031 17 1.785156 18.1875 1.421875 C 19.382812 1.066406 20.363281 0.476562 21.125 -0.34375 C 21.882812 -1.175781 22.359375 -2.101562 22.546875 -3.125 C 22.785156 -4.394531 22.628906 -5.554688 22.078125 -6.609375 C 21.535156 -7.660156 20.789062 -8.59375 19.84375 -9.40625 C 18.894531 -10.226562 17.582031 -11.21875 15.90625 -12.375 C 13.96875 -13.71875 12.414062 -14.898438 11.25 -15.921875 C 10.09375 -16.941406 9.175781 -18.179688 8.5 -19.640625 C 7.820312 -21.109375 7.660156 -22.796875 8.015625 -24.703125 C 8.585938 -27.773438 10.066406 -29.867188 12.453125 -30.984375 C 14.835938 -32.109375 17.742188 -32.351562 21.171875 -31.71875 C 23.847656 -31.21875 26.078125 -30.210938 27.859375 -28.703125 C 29.648438 -27.191406 30.34375 -25.347656 29.9375 -23.171875 C 29.695312 -21.898438 29.0625 -20.929688 28.03125 -20.265625 C 27.007812 -19.597656 25.8125 -19.394531 24.4375 -19.65625 C 23.632812 -19.832031 23.050781 -20.144531 22.6875 -20.59375 C 22.332031 -21.050781 22.1875 -21.4375 22.25 -21.75 C 22.257812 -21.789062 22.519531 -21.867188 23.03125 -21.984375 C 23.550781 -22.097656 24.035156 -22.332031 24.484375 -22.6875 C 24.941406 -23.050781 25.242188 -23.601562 25.390625 -24.34375 C 25.628906 -25.65625 25.3125 -26.773438 24.4375 -27.703125 C 23.570312 -28.628906 22.367188 -29.238281 20.828125 -29.53125 C 18.660156 -29.9375 16.925781 -29.738281 15.625 -28.9375 C 14.332031 -28.132812 13.546875 -26.992188 13.265625 -25.515625 C 13.035156 -24.285156 13.175781 -23.191406 13.6875 -22.234375 C 14.207031 -21.285156 15.128906 -20.257812 16.453125 -19.15625 C 17.535156 -18.289062 18.726562 -17.410156 20.03125 -16.515625 C 22.09375 -15.066406 23.707031 -13.796875 24.875 -12.703125 C 26.039062 -11.617188 26.941406 -10.300781 27.578125 -8.75 C 28.222656 -7.207031 28.359375 -5.414062 27.984375 -3.375 C 27.648438 -1.613281 26.789062 -0.125 25.40625 1.09375 C 24.03125 2.320312 22.320312 3.164062 20.28125 3.625 C 18.238281 4.09375 16.082031 4.113281 13.8125 3.6875 Z M 13.8125 3.6875 "/></g></g></g></svg>