<svg xmlns="http://www.w3.org/2000/svg" xmlns:xlink="http://www.w3.org/1999/xlink" width="500" zoomAndPan="magnify" viewBox="0 0 375 299.999988" height="400" preserveAspectRatio="xMidYMid meet" version="1.0"><defs><filter x="0%" y="0%" width="100%" height="100%" id="cb997a94e0"><feColorMatrix values="0 0 0 0 1 0 0 0 0 1 0 0 0 0 1 0 0 0 1 0" color-interpolation-filters="sRGB"/></filter><mask id="f0a1240715"><g filter="url(#cb997a94e0)"><rect x="-37.5" width="450" fill="#000000" y="-29.999999" height="359.999986" fill-opacity="0.5"/></g></mask><clipPath id="e2f6edf18f"><path d="M 23 66 L 47 66 L 47 92 L 23 92 Z M 23 66 " clip-rule="nonzero"/></clipPath><clipPath id="30aaa3f602"><path d="M 27.046875 -20.632812 L 246.875 4.410156 L 219.964844 240.632812 L 0.136719 215.585938 Z M 27.046875 -20.632812 " clip-rule="nonzero"/></clipPath><clipPath id="48aaa67175"><path d="M 27.046875 -20.632812 L 246.875 4.410156 L 219.964844 240.632812 L 0.136719 215.585938 Z M 27.046875 -20.632812 " clip-rule="nonzero"/></clipPath><clipPath id="c33f3eba2f"><path d="M 27.046875 -20.632812 L 246.875 4.410156 L 219.964844 240.632812 L 0.136719 215.585938 Z M 27.046875 -20.632812 " clip-rule="nonzero"/></clipPath><clipPath id="c72fa0e704"><path d="M 22 66 L 48 66 L 48 92 L 22 92 Z M 22 66 " clip-rule="nonzero"/></clipPath><clipPath id="313681b53a"><path d="M 27.046875 -20.632812 L 246.875 4.410156 L 219.964844 240.632812 L 0.136719 215.585938 Z M 27.046875 -20.632812 " clip-rule="nonzero"/></clipPath><clipPath id="a5287eb5f2"><path d="M 27.046875 -20.632812 L 246.875 4.410156 L 219.964844 240.632812 L 0.136719 215.585938 Z M 27.046875 -20.632812 " clip-rule="nonzero"/></clipPath><clipPath id="8b1bd74828"><path d="M 27.046875 -20.632812 L 246.875 4.410156 L 219.964844 240.632812 L 0.136719 215.585938 Z M 27.046875 -20.632812 " clip-rule="nonzero"/></clipPath><clipPath id="a84e23d2f7"><path d="M 82 121 L 107 121 L 107 146 L 82 146 Z M 82 121 " clip-rule="nonzero"/></clipPath><clipPath id="52a1d2b8d3"><path d="M 27.046875 -20.632812 L 246.875 4.410156 L 219.964844 240.632812 L 0.136719 215.585938 Z M 27.046875 -20.632812 " clip-rule="nonzero"/></clipPath><clipPath id="836bcb2714"><path d="M 27.046875 -20.632812 L 246.875 4.410156 L 219.964844 240.632812 L 0.136719 215.585938 Z M 27.046875 -20.632812 " clip-rule="nonzero"/></clipPath><clipPath id="3f47822d78"><path d="M 27.046875 -20.632812 L 246.875 4.410156 L 219.964844 240.632812 L 0.136719 215.585938 Z M 27.046875 -20.632812 " clip-rule="nonzero"/></clipPath><clipPath id="0faa1bbc75"><path d="M 10 120 L 33 120 L 33 145 L 10 145 Z M 10 120 " clip-rule="nonzero"/></clipPath><clipPath id="8869094d9b"><path d="M 27.046875 -20.632812 L 246.875 4.410156 L 219.964844 240.632812 L 0.136719 215.585938 Z M 27.046875 -20.632812 " clip-rule="nonzero"/></clipPath><clipPath id="82e6224ac5"><path d="M 27.046875 -20.632812 L 246.875 4.410156 L 219.964844 240.632812 L 0.136719 215.585938 Z M 27.046875 -20.632812 " clip-rule="nonzero"/></clipPath><clipPath id="868ef21d74"><path d="M 27.046875 -20.632812 L 246.875 4.410156 L 219.964844 240.632812 L 0.136719 215.585938 Z M 27.046875 -20.632812 " clip-rule="nonzero"/></clipPath><clipPath id="ac55a43d21"><path d="M 162 8 L 187 8 L 187 33 L 162 33 Z M 162 8 " clip-rule="nonzero"/></clipPath><clipPath id="101fa2c3ed"><path d="M 27.046875 -20.632812 L 246.875 4.410156 L 219.964844 240.632812 L 0.136719 215.585938 Z M 27.046875 -20.632812 " clip-rule="nonzero"/></clipPath><clipPath id="bd62ea1e97"><path d="M 27.046875 -20.632812 L 246.875 4.410156 L 219.964844 240.632812 L 0.136719 215.585938 Z M 27.046875 -20.632812 " clip-rule="nonzero"/></clipPath><clipPath id="36e41c53cd"><path d="M 27.046875 -20.632812 L 246.875 4.410156 L 219.964844 240.632812 L 0.136719 215.585938 Z M 27.046875 -20.632812 " clip-rule="nonzero"/></clipPath><clipPath id="72a561bbb6"><path d="M 223 2 L 246.960938 2 L 246.960938 27 L 223 27 Z M 223 2 " clip-rule="nonzero"/></clipPath><clipPath id="5a5e3ecdfd"><path d="M 27.046875 -20.632812 L 246.875 4.410156 L 219.964844 240.632812 L 0.136719 215.585938 Z M 27.046875 -20.632812 " clip-rule="nonzero"/></clipPath><clipPath id="b67db0d0b0"><path d="M 27.046875 -20.632812 L 246.875 4.410156 L 219.964844 240.632812 L 0.136719 215.585938 Z M 27.046875 -20.632812 " clip-rule="nonzero"/></clipPath><clipPath id="dc8d73babd"><path d="M 27.046875 -20.632812 L 246.875 4.410156 L 219.964844 240.632812 L 0.136719 215.585938 Z M 27.046875 -20.632812 " clip-rule="nonzero"/></clipPath><clipPath id="c517e05e7c"><path d="M 224.816406 1.933594 L 246.890625 4.449219 L 244.226562 27.824219 L 222.152344 25.308594 Z M 224.816406 1.933594 " clip-rule="nonzero"/></clipPath><clipPath id="68c95f287c"><path d="M 222 2 L 246.960938 2 L 246.960938 27 L 222 27 Z M 222 2 " clip-rule="nonzero"/></clipPath><clipPath id="dfefa1a29c"><path d="M 27.046875 -20.632812 L 246.875 4.410156 L 219.964844 240.632812 L 0.136719 215.585938 Z M 27.046875 -20.632812 " clip-rule="nonzero"/></clipPath><clipPath id="88b07c3e1d"><path d="M 27.046875 -20.632812 L 246.875 4.410156 L 219.964844 240.632812 L 0.136719 215.585938 Z M 27.046875 -20.632812 " clip-rule="nonzero"/></clipPath><clipPath id="5907fd3c7f"><path d="M 27.046875 -20.632812 L 246.875 4.410156 L 219.964844 240.632812 L 0.136719 215.585938 Z M 27.046875 -20.632812 " clip-rule="nonzero"/></clipPath><clipPath id="21124d40df"><path d="M 224.199219 1.863281 L 246.890625 4.449219 L 244.226562 27.824219 L 221.535156 25.238281 Z M 224.199219 1.863281 " clip-rule="nonzero"/></clipPath><clipPath id="5560193582"><path d="M 77 68 L 100 68 L 100 91 L 77 91 Z M 77 68 " clip-rule="nonzero"/></clipPath><clipPath id="8156403c62"><path d="M 27.046875 -20.632812 L 246.875 4.410156 L 219.964844 240.632812 L 0.136719 215.585938 Z M 27.046875 -20.632812 " clip-rule="nonzero"/></clipPath><clipPath id="e712ec6cf8"><path d="M 27.046875 -20.632812 L 246.875 4.410156 L 219.964844 240.632812 L 0.136719 215.585938 Z M 27.046875 -20.632812 " clip-rule="nonzero"/></clipPath><clipPath id="37ef6be199"><path d="M 27.046875 -20.632812 L 246.875 4.410156 L 219.964844 240.632812 L 0.136719 215.585938 Z M 27.046875 -20.632812 " clip-rule="nonzero"/></clipPath><clipPath id="3d186bc2bb"><path d="M 143 109 L 168 109 L 168 135 L 143 135 Z M 143 109 " clip-rule="nonzero"/></clipPath><clipPath id="1697281506"><path d="M 27.046875 -20.632812 L 246.875 4.410156 L 219.964844 240.632812 L 0.136719 215.585938 Z M 27.046875 -20.632812 " clip-rule="nonzero"/></clipPath><clipPath id="245e81d481"><path d="M 27.046875 -20.632812 L 246.875 4.410156 L 219.964844 240.632812 L 0.136719 215.585938 Z M 27.046875 -20.632812 " clip-rule="nonzero"/></clipPath><clipPath id="927a838904"><path d="M 27.046875 -20.632812 L 246.875 4.410156 L 219.964844 240.632812 L 0.136719 215.585938 Z M 27.046875 -20.632812 " clip-rule="nonzero"/></clipPath><clipPath id="0612b54296"><path d="M 148 52 L 167 52 L 167 72 L 148 72 Z M 148 52 " clip-rule="nonzero"/></clipPath><clipPath id="80b7c69408"><path d="M 27.046875 -20.632812 L 246.875 4.410156 L 219.964844 240.632812 L 0.136719 215.585938 Z M 27.046875 -20.632812 " clip-rule="nonzero"/></clipPath><clipPath id="a7cadb97bb"><path d="M 27.046875 -20.632812 L 246.875 4.410156 L 219.964844 240.632812 L 0.136719 215.585938 Z M 27.046875 -20.632812 " clip-rule="nonzero"/></clipPath><clipPath id="fbfc21e288"><path d="M 27.046875 -20.632812 L 246.875 4.410156 L 219.964844 240.632812 L 0.136719 215.585938 Z M 27.046875 -20.632812 " clip-rule="nonzero"/></clipPath><clipPath id="18e60f622c"><path d="M 148 52 L 168 52 L 168 72 L 148 72 Z M 148 52 " clip-rule="nonzero"/></clipPath><clipPath id="3178565f09"><path d="M 27.046875 -20.632812 L 246.875 4.410156 L 219.964844 240.632812 L 0.136719 215.585938 Z M 27.046875 -20.632812 " clip-rule="nonzero"/></clipPath><clipPath id="487233dde8"><path d="M 27.046875 -20.632812 L 246.875 4.410156 L 219.964844 240.632812 L 0.136719 215.585938 Z M 27.046875 -20.632812 " clip-rule="nonzero"/></clipPath><clipPath id="8bc9813805"><path d="M 27.046875 -20.632812 L 246.875 4.410156 L 219.964844 240.632812 L 0.136719 215.585938 Z M 27.046875 -20.632812 " clip-rule="nonzero"/></clipPath><clipPath id="471f33cde4"><path d="M 111 20 L 136 20 L 136 46 L 111 46 Z M 111 20 " clip-rule="nonzero"/></clipPath><clipPath id="4740d20b86"><path d="M 27.046875 -20.632812 L 246.875 4.410156 L 219.964844 240.632812 L 0.136719 215.585938 Z M 27.046875 -20.632812 " clip-rule="nonzero"/></clipPath><clipPath id="e686b7a563"><path d="M 27.046875 -20.632812 L 246.875 4.410156 L 219.964844 240.632812 L 0.136719 215.585938 Z M 27.046875 -20.632812 " clip-rule="nonzero"/></clipPath><clipPath id="5f4f4f2706"><path d="M 27.046875 -20.632812 L 246.875 4.410156 L 219.964844 240.632812 L 0.136719 215.585938 Z M 27.046875 -20.632812 " clip-rule="nonzero"/></clipPath><clipPath id="66eeefc349"><path d="M 106 179 L 129 179 L 129 204 L 106 204 Z M 106 179 " clip-rule="nonzero"/></clipPath><clipPath id="fa022591a7"><path d="M 27.046875 -20.632812 L 246.875 4.410156 L 219.964844 240.632812 L 0.136719 215.585938 Z M 27.046875 -20.632812 " clip-rule="nonzero"/></clipPath><clipPath id="344fbadb31"><path d="M 27.046875 -20.632812 L 246.875 4.410156 L 219.964844 240.632812 L 0.136719 215.585938 Z M 27.046875 -20.632812 " clip-rule="nonzero"/></clipPath><clipPath id="e10a1dc4d4"><path d="M 27.046875 -20.632812 L 246.875 4.410156 L 219.964844 240.632812 L 0.136719 215.585938 Z M 27.046875 -20.632812 " clip-rule="nonzero"/></clipPath><clipPath id="f903d8ebdf"><path d="M 106 179 L 130 179 L 130 204 L 106 204 Z M 106 179 " clip-rule="nonzero"/></clipPath><clipPath id="e83ee51aaf"><path d="M 27.046875 -20.632812 L 246.875 4.410156 L 219.964844 240.632812 L 0.136719 215.585938 Z M 27.046875 -20.632812 " clip-rule="nonzero"/></clipPath><clipPath id="fb375b0dc3"><path d="M 27.046875 -20.632812 L 246.875 4.410156 L 219.964844 240.632812 L 0.136719 215.585938 Z M 27.046875 -20.632812 " clip-rule="nonzero"/></clipPath><clipPath id="a1a1235999"><path d="M 27.046875 -20.632812 L 246.875 4.410156 L 219.964844 240.632812 L 0.136719 215.585938 Z M 27.046875 -20.632812 " clip-rule="nonzero"/></clipPath><clipPath id="d476d120af"><path d="M 13 194 L 38 194 L 38 219 L 13 219 Z M 13 194 " clip-rule="nonzero"/></clipPath><clipPath id="ecf3c17d16"><path d="M 27.046875 -20.632812 L 246.875 4.410156 L 219.964844 240.632812 L 0.136719 215.585938 Z M 27.046875 -20.632812 " clip-rule="nonzero"/></clipPath><clipPath id="6936e12a96"><path d="M 27.046875 -20.632812 L 246.875 4.410156 L 219.964844 240.632812 L 0.136719 215.585938 Z M 27.046875 -20.632812 " clip-rule="nonzero"/></clipPath><clipPath id="749d4881a7"><path d="M 27.046875 -20.632812 L 246.875 4.410156 L 219.964844 240.632812 L 0.136719 215.585938 Z M 27.046875 -20.632812 " clip-rule="nonzero"/></clipPath><clipPath id="94c29e99ba"><path d="M 15.1875 193.027344 L 37.984375 195.621094 L 35.261719 219.527344 L 12.464844 216.929688 Z M 15.1875 193.027344 " clip-rule="nonzero"/></clipPath><clipPath id="5d9401c267"><path d="M 13 194 L 38 194 L 38 219 L 13 219 Z M 13 194 " clip-rule="nonzero"/></clipPath><clipPath id="c1ebf1f0aa"><path d="M 27.046875 -20.632812 L 246.875 4.410156 L 219.964844 240.632812 L 0.136719 215.585938 Z M 27.046875 -20.632812 " clip-rule="nonzero"/></clipPath><clipPath id="368d463c3a"><path d="M 27.046875 -20.632812 L 246.875 4.410156 L 219.964844 240.632812 L 0.136719 215.585938 Z M 27.046875 -20.632812 " clip-rule="nonzero"/></clipPath><clipPath id="5a9c8f8176"><path d="M 27.046875 -20.632812 L 246.875 4.410156 L 219.964844 240.632812 L 0.136719 215.585938 Z M 27.046875 -20.632812 " clip-rule="nonzero"/></clipPath><clipPath id="5ae47d30db"><path d="M 15.1875 193.027344 L 38.601562 195.691406 L 35.875 219.597656 L 12.464844 216.929688 Z M 15.1875 193.027344 " clip-rule="nonzero"/></clipPath><clipPath id="197533d1c6"><rect x="0" width="247" y="0" height="242"/></clipPath><clipPath id="0100b77fdf"><path d="M 36.621094 0.863281 L 362.601562 0.863281 L 362.601562 299.988281 L 36.621094 299.988281 Z M 36.621094 0.863281 " clip-rule="nonzero"/></clipPath></defs><g mask="url(#f0a1240715)"><g transform="matrix(1, 0, 0, 1, 12, 0)"><g clip-path="url(#197533d1c6)"><g clip-path="url(#e2f6edf18f)"><g clip-path="url(#30aaa3f602)"><g clip-path="url(#48aaa67175)"><g clip-path="url(#c33f3eba2f)"><path fill="#c7c4c6" d="M 33.140625 66.796875 C 33.902344 77.773438 33.316406 78.617188 23.027344 81.296875 C 33.585938 80.402344 34.390625 81.007812 36.875 91.683594 C 36.113281 80.710938 36.699219 79.867188 46.988281 77.1875 C 36.429688 78.082031 35.625 77.476562 33.140625 66.796875 " fill-opacity="1" fill-rule="nonzero"/></g></g></g></g><g clip-path="url(#c72fa0e704)"><g clip-path="url(#313681b53a)"><g clip-path="url(#a5287eb5f2)"><g clip-path="url(#8b1bd74828)"><path fill="#979497" d="M 30.03125 80.796875 C 33.703125 81.214844 34.980469 83.101562 36.371094 88.335938 C 36.101562 81.3125 37.28125 79.660156 43.855469 77.722656 C 37.046875 78.082031 35.441406 76.902344 33.644531 70.148438 C 33.914062 77.167969 32.734375 78.824219 26.160156 80.761719 C 27.695312 80.679688 28.964844 80.675781 30.03125 80.796875 Z M 36.574219 91.753906 C 34.117188 81.195312 33.484375 80.71875 23.050781 81.605469 L 22.949219 80.996094 C 33.125 78.34375 33.585938 77.683594 32.832031 66.820312 L 33.445312 66.730469 C 35.898438 77.285156 36.53125 77.761719 46.964844 76.878906 L 47.066406 77.484375 C 36.890625 80.136719 36.429688 80.800781 37.183594 91.664062 L 36.574219 91.753906 " fill-opacity="1" fill-rule="nonzero"/></g></g></g></g><g clip-path="url(#a84e23d2f7)"><g clip-path="url(#52a1d2b8d3)"><g clip-path="url(#836bcb2714)"><g clip-path="url(#3f47822d78)"><path fill="#c7c4c6" d="M 91.96875 121.300781 C 93.382812 132.195312 92.847656 133.074219 82.726562 136.410156 C 93.21875 134.839844 94.058594 135.390625 97.171875 145.882812 C 95.761719 134.988281 96.296875 134.109375 106.414062 130.773438 C 95.925781 132.34375 95.085938 131.792969 91.96875 121.300781 " fill-opacity="1" fill-rule="nonzero"/><path fill="#979497" d="M 90.351562 135.515625 C 93.554688 135.878906 94.878906 137.765625 96.472656 142.578125 C 95.785156 135.589844 96.863281 133.863281 103.3125 131.511719 C 96.539062 132.304688 94.867188 131.230469 92.671875 124.601562 C 93.355469 131.59375 92.277344 133.320312 85.828125 135.671875 C 87.679688 135.453125 89.148438 135.378906 90.351562 135.515625 Z M 96.875 145.972656 C 93.796875 135.597656 93.140625 135.164062 82.777344 136.714844 L 82.632812 136.117188 C 92.640625 132.820312 93.0625 132.125 91.664062 121.335938 L 92.269531 121.210938 C 95.34375 131.582031 96.003906 132.015625 106.371094 130.46875 L 106.511719 131.070312 C 96.503906 134.367188 96.082031 135.054688 97.480469 145.84375 L 96.875 145.972656 " fill-opacity="1" fill-rule="nonzero"/></g></g></g></g><g clip-path="url(#0faa1bbc75)"><g clip-path="url(#8869094d9b)"><g clip-path="url(#82e6224ac5)"><g clip-path="url(#868ef21d74)"><path fill="#c7c4c6" d="M 25.945312 120.695312 C 21.277344 130.621094 20.363281 131.046875 10.226562 127.96875 C 19.726562 132.734375 20.125 133.683594 17.078125 144.257812 C 21.746094 134.328125 22.660156 133.90625 32.796875 136.980469 C 23.296875 132.214844 22.898438 131.265625 25.945312 120.695312 " fill-opacity="1" fill-rule="nonzero"/><path fill="#979497" d="M 13.175781 129.148438 C 19.199219 132.410156 20.007812 134.273438 18.273438 141.085938 C 21.449219 134.851562 23.265625 134.035156 29.84375 135.800781 C 23.820312 132.539062 23.015625 130.679688 24.75 123.867188 C 21.574219 130.097656 19.761719 130.917969 13.175781 129.148438 Z M 17.359375 144.386719 L 16.78125 144.167969 C 19.796875 133.703125 19.484375 132.957031 10.085938 128.246094 L 10.316406 127.675781 C 20.328125 130.710938 21.046875 130.378906 25.664062 120.566406 L 26.246094 120.78125 C 23.226562 131.25 23.539062 131.992188 32.9375 136.703125 L 32.707031 137.277344 C 22.691406 134.238281 21.972656 134.570312 17.359375 144.386719 " fill-opacity="1" fill-rule="nonzero"/></g></g></g></g><g clip-path="url(#ac55a43d21)"><g clip-path="url(#101fa2c3ed)"><g clip-path="url(#bd62ea1e97)"><g clip-path="url(#36e41c53cd)"><path fill="#c7c4c6" d="M 177.960938 8.417969 C 174.148438 18.722656 173.273438 19.230469 162.90625 17.101562 C 172.785156 20.96875 173.261719 21.875 171.117188 32.679688 C 174.929688 22.371094 175.808594 21.867188 186.175781 23.996094 C 176.296875 20.125 175.820312 19.21875 177.960938 8.417969 " fill-opacity="1" fill-rule="nonzero"/><path fill="#979497" d="M 165.945312 18 C 172.226562 20.691406 173.191406 22.472656 172.042969 29.410156 C 174.679688 22.917969 176.414062 21.9375 183.132812 23.097656 C 176.851562 20.402344 175.886719 18.621094 177.039062 11.683594 C 174.402344 18.179688 172.660156 19.160156 165.945312 18 Z M 171.410156 32.789062 L 170.816406 32.621094 C 172.933594 21.925781 172.558594 21.214844 162.792969 17.386719 L 162.96875 16.796875 C 173.210938 18.898438 173.898438 18.503906 177.671875 8.308594 L 178.265625 8.476562 C 176.144531 19.171875 176.519531 19.878906 186.289062 23.710938 L 186.109375 24.300781 C 175.867188 22.195312 175.179688 22.59375 171.410156 32.789062 " fill-opacity="1" fill-rule="nonzero"/></g></g></g></g><g clip-path="url(#72a561bbb6)"><g clip-path="url(#5a5e3ecdfd)"><g clip-path="url(#b67db0d0b0)"><g clip-path="url(#dc8d73babd)"><g clip-path="url(#c517e05e7c)"><path fill="#c7c4c6" d="M 230.691406 2.757812 C 233.203125 13.429688 232.757812 14.359375 223.027344 18.785156 C 233.308594 16.074219 234.203125 16.527344 238.371094 26.609375 C 235.851562 15.9375 236.296875 15.007812 246.03125 10.582031 C 235.746094 13.292969 234.855469 12.835938 230.691406 2.757812 " fill-opacity="1" fill-rule="nonzero"/></g></g></g></g></g><g clip-path="url(#68c95f287c)"><g clip-path="url(#dfefa1a29c)"><g clip-path="url(#88b07c3e1d)"><g clip-path="url(#5907fd3c7f)"><g clip-path="url(#21124d40df)"><path fill="#979497" d="M 231.367188 17.105469 C 234.03125 17.410156 235.449219 19.214844 237.335938 23.410156 C 235.941406 16.535156 236.835938 14.699219 243.011719 11.660156 C 236.351562 13.1875 234.582031 12.300781 231.71875 5.957031 C 233.117188 12.832031 232.222656 14.664062 226.046875 17.710938 C 228.304688 17.191406 230 16.949219 231.367188 17.105469 Z M 238.082031 26.726562 C 233.960938 16.761719 233.265625 16.402344 223.109375 19.085938 L 222.898438 18.503906 C 232.527344 14.125 232.878906 13.394531 230.386719 2.828125 L 230.976562 2.640625 C 235.09375 12.605469 235.796875 12.960938 245.953125 10.28125 L 246.160156 10.863281 C 236.53125 15.242188 236.179688 15.972656 238.671875 26.539062 L 238.082031 26.726562 " fill-opacity="1" fill-rule="nonzero"/></g></g></g></g></g><g clip-path="url(#5560193582)"><g clip-path="url(#8156403c62)"><g clip-path="url(#e712ec6cf8)"><g clip-path="url(#37ef6be199)"><path fill="#c7c4c6" d="M 94.441406 68.433594 C 88.542969 77.632812 87.585938 77.925781 77.945312 73.464844 C 86.734375 79.515625 87.007812 80.507812 82.632812 90.574219 C 88.53125 81.375 89.488281 81.085938 99.128906 85.546875 C 90.335938 79.492188 90.0625 78.5 94.441406 68.433594 " fill-opacity="1" fill-rule="nonzero"/><path fill="#979497" d="M 80.722656 75.046875 C 86.261719 79.121094 86.816406 81.078125 84.21875 87.601562 C 88.164062 81.859375 90.070312 81.296875 96.351562 83.960938 C 90.808594 79.890625 90.253906 77.929688 92.855469 71.40625 C 88.910156 77.152344 87.003906 77.710938 80.722656 75.046875 Z M 82.894531 90.742188 L 82.347656 90.453125 C 86.679688 80.488281 86.46875 79.707031 77.769531 73.71875 L 78.074219 73.183594 C 87.59375 77.589844 88.347656 77.359375 94.179688 68.269531 L 94.722656 68.554688 C 90.394531 78.523438 90.605469 79.304688 99.304688 85.292969 L 98.996094 85.824219 C 89.476562 81.421875 88.722656 81.648438 82.894531 90.742188 " fill-opacity="1" fill-rule="nonzero"/></g></g></g></g><g clip-path="url(#3d186bc2bb)"><g clip-path="url(#1697281506)"><g clip-path="url(#245e81d481)"><g clip-path="url(#927a838904)"><path fill="#c7c4c6" d="M 154.261719 109.753906 C 154.253906 120.761719 153.609375 121.5625 143.167969 123.460938 C 153.753906 123.363281 154.511719 124.03125 156.242188 134.871094 C 156.25 123.863281 156.894531 123.066406 167.339844 121.167969 C 156.753906 121.265625 155.992188 120.597656 154.261719 109.753906 " fill-opacity="1" fill-rule="nonzero"/><path fill="#979497" d="M 149.085938 123.324219 C 153.59375 123.839844 154.855469 125.660156 155.976562 131.492188 C 156.199219 124.460938 157.488281 122.902344 164.179688 121.46875 C 157.367188 121.308594 155.847656 120.015625 154.527344 113.140625 C 154.304688 120.164062 153.011719 121.726562 146.324219 123.160156 C 147.363281 123.183594 148.277344 123.234375 149.085938 123.324219 Z M 155.9375 134.921875 C 154.226562 124.195312 153.628906 123.675781 143.171875 123.769531 L 143.109375 123.15625 C 153.441406 121.277344 153.945312 120.652344 153.949219 109.753906 L 154.566406 109.707031 C 156.277344 120.429688 156.878906 120.953125 167.335938 120.859375 L 167.390625 121.472656 C 157.066406 123.347656 156.558594 123.976562 156.554688 134.875 L 155.9375 134.921875 " fill-opacity="1" fill-rule="nonzero"/></g></g></g></g><g clip-path="url(#0612b54296)"><g clip-path="url(#80b7c69408)"><g clip-path="url(#a7cadb97bb)"><g clip-path="url(#fbfc21e288)"><path fill="#c7c4c6" d="M 165.53125 52.339844 C 157.988281 60.140625 156.996094 60.226562 148.429688 53.839844 C 155.859375 61.609375 155.933594 62.644531 149.714844 71.609375 C 157.253906 63.8125 158.25 63.726562 166.8125 70.113281 C 159.382812 62.339844 159.3125 61.308594 165.53125 52.339844 " fill-opacity="1" fill-rule="nonzero"/></g></g></g></g><g clip-path="url(#18e60f622c)"><g clip-path="url(#3178565f09)"><g clip-path="url(#487233dde8)"><g clip-path="url(#8bc9813805)"><path fill="#979497" d="M 150.855469 55.984375 C 155.476562 61.132812 155.632812 63.171875 151.828125 69.039062 C 156.796875 64.214844 158.769531 64.050781 164.390625 67.96875 C 159.769531 62.824219 159.609375 60.78125 163.417969 54.910156 C 158.445312 59.738281 156.472656 59.902344 150.855469 55.984375 Z M 149.9375 71.828125 L 149.460938 71.4375 C 155.617188 62.558594 155.558594 61.746094 148.203125 54.050781 L 148.617188 53.589844 C 157.074219 59.902344 157.855469 59.832031 165.308594 52.125 L 165.785156 52.515625 C 159.625 61.394531 159.683594 62.207031 167.039062 69.898438 L 166.628906 70.363281 C 158.171875 64.054688 157.390625 64.121094 149.9375 71.828125 " fill-opacity="1" fill-rule="nonzero"/></g></g></g></g><g clip-path="url(#471f33cde4)"><g clip-path="url(#4740d20b86)"><g clip-path="url(#e686b7a563)"><g clip-path="url(#5f4f4f2706)"><path fill="#c7c4c6" d="M 121.871094 20.207031 C 122.417969 31.195312 121.8125 32.027344 111.472656 34.484375 C 122.046875 33.816406 122.835938 34.441406 125.109375 45.171875 C 124.5625 34.183594 125.167969 33.351562 135.507812 30.890625 C 124.933594 31.558594 124.144531 30.9375 121.871094 20.207031 " fill-opacity="1" fill-rule="nonzero"/><path fill="#979497" d="M 118.21875 34.105469 C 122.085938 34.546875 123.351562 36.421875 124.671875 41.8125 C 124.542969 34.785156 125.753906 33.15625 132.363281 31.363281 C 125.554688 31.574219 123.96875 30.363281 122.308594 23.566406 C 122.4375 30.59375 121.226562 32.222656 114.617188 34.015625 C 116.023438 33.972656 117.210938 33.988281 118.21875 34.105469 Z M 124.804688 45.234375 C 122.558594 34.625 121.933594 34.136719 111.492188 34.792969 L 111.402344 34.183594 C 121.625 31.753906 122.101562 31.101562 121.5625 20.222656 L 122.175781 20.140625 C 124.421875 30.753906 125.042969 31.242188 135.488281 30.582031 L 135.578125 31.195312 C 125.351562 33.625 124.878906 34.277344 125.417969 45.15625 L 124.804688 45.234375 " fill-opacity="1" fill-rule="nonzero"/></g></g></g></g><g clip-path="url(#66eeefc349)"><g clip-path="url(#fa022591a7)"><g clip-path="url(#344fbadb31)"><g clip-path="url(#e10a1dc4d4)"><path fill="#c7c4c6" d="M 128.929688 186.988281 C 118.753906 190.121094 117.84375 189.703125 113.300781 179.800781 C 116.21875 190.359375 115.804688 191.308594 106.246094 196.128906 C 116.421875 192.996094 117.332031 193.414062 121.875 203.3125 C 118.957031 192.757812 119.371094 191.808594 128.929688 186.988281 " fill-opacity="1" fill-rule="nonzero"/></g></g></g></g><g clip-path="url(#f903d8ebdf)"><g clip-path="url(#e83ee51aaf)"><g clip-path="url(#fb375b0dc3)"><g clip-path="url(#a1a1235999)"><path fill="#979497" d="M 114.773438 194.132812 C 117.292969 194.417969 118.742188 196.1875 120.726562 200.164062 C 119.070312 193.351562 119.894531 191.484375 125.949219 188.1875 C 119.355469 189.988281 117.546875 189.175781 114.449219 182.953125 C 116.105469 189.765625 115.285156 191.632812 109.226562 194.929688 C 111.605469 194.28125 113.359375 193.972656 114.773438 194.132812 Z M 121.597656 203.441406 C 117.101562 193.660156 116.386719 193.328125 106.335938 196.421875 L 106.105469 195.851562 C 115.566406 191.082031 115.886719 190.335938 113 179.886719 L 113.578125 179.675781 C 118.070312 189.460938 118.785156 189.785156 128.839844 186.695312 L 129.070312 187.265625 C 119.609375 192.035156 119.289062 192.78125 122.175781 203.230469 L 121.597656 203.441406 " fill-opacity="1" fill-rule="nonzero"/></g></g></g></g><g clip-path="url(#d476d120af)"><g clip-path="url(#ecf3c17d16)"><g clip-path="url(#6936e12a96)"><g clip-path="url(#749d4881a7)"><g clip-path="url(#94c29e99ba)"><path fill="#c7c4c6" d="M 22.195312 194.273438 C 24.039062 205.097656 23.535156 206 13.554688 209.761719 C 23.980469 207.746094 24.84375 208.261719 28.367188 218.605469 C 26.523438 207.785156 27.027344 206.882812 37.007812 203.121094 C 26.585938 205.136719 25.722656 204.621094 22.195312 194.273438 " fill-opacity="1" fill-rule="nonzero"/></g></g></g></g></g><g clip-path="url(#5d9401c267)"><g clip-path="url(#c1ebf1f0aa)"><g clip-path="url(#368d463c3a)"><g clip-path="url(#5a9c8f8176)"><g clip-path="url(#5ae47d30db)"><path fill="#979497" d="M 21.5 208.574219 C 24.464844 208.914062 25.820312 210.777344 27.539062 215.339844 C 26.574219 208.382812 27.585938 206.613281 33.933594 203.988281 C 27.199219 205.070312 25.484375 204.070312 23.027344 197.542969 C 23.988281 204.5 22.980469 206.269531 16.628906 208.894531 C 18.65625 208.566406 20.226562 208.429688 21.5 208.574219 Z M 28.078125 218.707031 C 24.589844 208.476562 23.914062 208.074219 13.613281 210.066406 L 13.445312 209.472656 C 23.320312 205.75 23.714844 205.042969 21.890625 194.328125 L 22.488281 194.175781 C 25.976562 204.40625 26.652344 204.808594 36.949219 202.816406 L 37.117188 203.410156 C 27.246094 207.132812 26.851562 207.839844 28.675781 218.558594 L 28.078125 218.707031 " fill-opacity="1" fill-rule="nonzero"/></g></g></g></g></g></g></g></g><g clip-path="url(#0100b77fdf)"><path fill="#dccae8" d="M 312.457031 0.882812 C 371.226562 46.785156 364.179688 88.570312 360.136719 97.582031 C 355.257812 109.605469 341.0625 132.328125 339.386719 143.421875 C 335.09375 171.84375 334.148438 273.199219 333.992188 295.589844 C 333.972656 298.023438 331.992188 299.988281 329.558594 299.988281 C 328.34375 299.988281 327.183594 299.496094 326.339844 298.625 C 325.496094 297.753906 325.039062 296.574219 325.078125 295.363281 C 325.914062 267.484375 329.34375 123.285156 311.125 128.660156 C 264.765625 142.335938 255.6875 195.675781 243.25 235.402344 C 225.136719 293.246094 219.277344 303.511719 155.070312 299.078125 C 88.261719 294.464844 48.761719 285.523438 38.027344 278.726562 C 36.71875 277.898438 34.933594 274.078125 38.972656 270.164062 C 47.117188 262.265625 71.726562 254.414062 114.363281 237.3125 C 119.460938 235.269531 125.554688 234.757812 128.300781 234.554688 C 149.074219 233.011719 172.476562 218.449219 184.855469 205.789062 C 216.910156 173.015625 228.902344 115.015625 274.878906 45.921875 C 284.175781 31.953125 311.730469 -0.0078125 312.457031 0.882812 " fill-opacity="1" fill-rule="evenodd"/></g><path fill="#6d4881" d="M 312.457031 0.882812 C 316.222656 5.492188 275.011719 45.855469 255.867188 104.671875 C 237.277344 161.78125 218.644531 257.511719 167.996094 265.488281 C 134.332031 270.789062 111.820312 258.703125 108.09375 250.449219 C 104.769531 243.070312 108.183594 236.050781 128.300781 234.554688 C 149.074219 233.011719 172.476562 218.449219 184.855469 205.789062 C 216.910156 173.015625 228.902344 115.015625 274.878906 45.921875 C 284.175781 31.953125 311.730469 -0.0078125 312.457031 0.882812 " fill-opacity="1" fill-rule="evenodd"/><path fill="#f4eff8" d="M 100.695312 259.113281 C 106.015625 257.761719 105.511719 266.988281 128.078125 270.910156 C 132.65625 271.707031 125.597656 276.070312 113.257812 276.789062 C 95.871094 277.800781 47.253906 276.519531 45.160156 273.574219 C 43.066406 270.628906 90.597656 261.679688 100.695312 259.113281 Z M 312.457031 0.882812 C 316.222656 5.492188 275.011719 45.855469 255.867188 104.671875 C 237.277344 161.78125 218.644531 257.511719 167.996094 265.488281 C 134.332031 270.789062 111.820312 258.703125 108.09375 250.449219 C 104.769531 243.070312 108.183594 236.050781 128.300781 234.554688 C 149.074219 233.011719 172.476562 218.449219 184.855469 205.789062 C 216.910156 173.015625 228.902344 115.015625 274.878906 45.921875 C 284.175781 31.953125 311.730469 -0.0078125 312.457031 0.882812 Z M 304.25 11.769531 C 304.390625 11.609375 304.632812 11.585938 304.800781 11.71875 C 304.96875 11.847656 305.007812 12.089844 304.890625 12.269531 C 293.109375 29.195312 268.0625 61.949219 254.320312 104.160156 C 243.191406 138.351562 232.066406 186.421875 214.015625 221.121094 C 202.226562 243.78125 187.546875 260.75 167.746094 263.867188 C 147.941406 266.984375 132.070312 264 121.757812 259.335938 C 115.230469 256.386719 110.960938 252.839844 109.574219 249.765625 C 108.613281 247.636719 108.257812 245.546875 109.015625 243.671875 C 109.796875 241.722656 111.726562 240.085938 115.03125 238.78125 C 118.214844 237.523438 122.59375 236.625 128.417969 236.191406 C 149.570312 234.621094 173.410156 219.828125 186.011719 206.945312 C 198.945312 193.71875 208.660156 176.4375 218.609375 155.980469 C 233.375 125.617188 248.691406 88.21875 276.230469 46.835938 C 282.082031 38.042969 295.210938 22.082031 304.25 11.769531 Z M 360.636719 96.332031 C 359.871094 97.25 358.628906 98.875 355.398438 100.570312 C 352.167969 102.265625 347.347656 104.144531 341.550781 106.464844 C 318.738281 115.597656 281.027344 131.519531 264.953125 169.324219 C 263.429688 172.910156 262.410156 175.820312 261.78125 178.175781 C 265.335938 169.898438 269.5 162.042969 274.601562 155.042969 C 292.832031 128.246094 322.894531 115.699219 342.148438 107.988281 C 348.011719 105.644531 352.882812 103.738281 356.148438 102.027344 C 357.285156 101.429688 358.230469 100.84375 358.976562 100.269531 C 359.40625 99.324219 359.796875 98.425781 360.136719 97.582031 C 360.300781 97.21875 360.46875 96.800781 360.636719 96.332031 " fill-opacity="1" fill-rule="evenodd"/></svg>